<svg width="22" height="22" viewBox="0 0 22 22" fill="none" xmlns="http://www.w3.org/2000/svg">
<path d="M11 14.4375C11.9117 14.4375 12.786 14.0753 13.4307 13.4307C14.0753 12.786 14.4375 11.9117 14.4375 11C14.4375 10.0883 14.0753 9.21398 13.4307 8.56932C12.786 7.92466 11.9117 7.5625 11 7.5625C10.0883 7.5625 9.21398 7.92466 8.56932 8.56932C7.92466 9.21398 7.5625 10.0883 7.5625 11C7.5625 11.9117 7.92466 12.786 8.56932 13.4307C9.21398 14.0753 10.0883 14.4375 11 14.4375ZM11.6875 2.0625C11.6875 1.88016 11.6151 1.7053 11.4861 1.57636C11.3572 1.44743 11.1823 1.375 11 1.375C10.8177 1.375 10.6428 1.44743 10.5139 1.57636C10.3849 1.7053 10.3125 1.88016 10.3125 2.0625V4.15938C8.73475 4.31845 7.26043 5.01783 6.13913 6.13913C5.01783 7.26043 4.31845 8.73475 4.15938 10.3125H2.0625C1.88016 10.3125 1.7053 10.3849 1.57636 10.5139C1.44743 10.6428 1.375 10.8177 1.375 11C1.375 11.1823 1.44743 11.3572 1.57636 11.4861C1.7053 11.6151 1.88016 11.6875 2.0625 11.6875H4.15938C4.31815 13.2655 5.0174 14.7401 6.13873 15.8617C7.26005 16.9833 8.73453 17.6829 10.3125 17.842V19.9375C10.3125 20.1198 10.3849 20.2947 10.5139 20.4236C10.6428 20.5526 10.8177 20.625 11 20.625C11.1823 20.625 11.3572 20.5526 11.4861 20.4236C11.6151 20.2947 11.6875 20.1198 11.6875 19.9375V17.842C13.2655 17.6829 14.7399 16.9833 15.8613 15.8617C16.9826 14.7401 17.6819 13.2655 17.8406 11.6875H19.9375C20.1198 11.6875 20.2947 11.6151 20.4236 11.4861C20.5526 11.3572 20.625 11.1823 20.625 11C20.625 10.8177 20.5526 10.6428 20.4236 10.5139C20.2947 10.3849 20.1198 10.3125 19.9375 10.3125H17.8406C17.6816 8.73475 16.9822 7.26043 15.8609 6.13913C14.7396 5.01783 13.2653 4.31845 11.6875 4.15938V2.0625ZM11 16.5C9.54131 16.5 8.14236 15.9205 7.11091 14.8891C6.07946 13.8576 5.5 12.4587 5.5 11C5.5 9.54131 6.07946 8.14236 7.11091 7.11091C8.14236 6.07946 9.54131 5.5 11 5.5C12.4587 5.5 13.8576 6.07946 14.8891 7.11091C15.9205 8.14236 16.5 9.54131 16.5 11C16.5 12.4587 15.9205 13.8576 14.8891 14.8891C13.8576 15.9205 12.4587 16.5 11 16.5Z" fill="#6A6C72"/>
</svg>
