<svg width="18" height="18" viewBox="0 0 18 18" fill="none" xmlns="http://www.w3.org/2000/svg">
<path d="M11.0313 2.29137C11.4923 2.06221 12.0341 1.99404 12.5703 2.13772C13.7373 2.45041 14.4298 3.64989 14.1171 4.81685L12.3377 11.4576C12.025 12.6245 10.8255 13.3171 9.65858 13.0044C8.49162 12.6917 7.7991 11.4922 8.11178 10.3253L8.82354 7.66896C8.90394 7.36889 8.72586 7.06045 8.42579 6.98004C8.12571 6.89964 7.81727 7.07772 7.73687 7.37779L7.02512 10.0341C6.55162 11.8012 7.6003 13.6176 9.36741 14.0911C11.1345 14.5645 12.9509 13.5159 13.4244 11.7488L15.2038 5.10802C15.6773 3.34092 14.6286 1.52455 12.8615 1.05106C12.0504 0.833724 11.2276 0.937476 10.5305 1.28397C10.1031 1.49644 9.72211 1.80051 9.41871 2.17876C9.22433 2.4211 9.26321 2.77512 9.50554 2.9695C9.74788 3.16388 10.1019 3.12501 10.2963 2.88267C10.4962 2.63342 10.7481 2.43217 11.0313 2.29137Z" fill="black"/>
<path d="M6.16724 6.95721C6.47993 5.79025 7.67941 5.09773 8.84637 5.41041C10.0133 5.7231 10.7058 6.92259 10.3932 8.08954L9.68141 10.7458C9.60101 11.0459 9.77909 11.3544 10.0792 11.4348C10.3792 11.5152 10.6877 11.3371 10.7681 11.037L11.4798 8.38071C11.9533 6.61361 10.9046 4.79724 9.13754 4.32375C7.37043 3.85025 5.55407 4.89893 5.08057 6.66604L3.30119 13.3068C2.8277 15.0739 3.87638 16.8903 5.64348 17.3637C6.45458 17.5811 7.27739 17.4773 7.97442 17.1308C8.40183 16.9184 8.78284 16.6143 9.08624 16.236C9.28062 15.9937 9.24174 15.6397 8.99941 15.4453C8.75707 15.2509 8.40305 15.2898 8.20867 15.5321C8.00874 15.7814 7.75689 15.9826 7.47364 16.1234C7.01266 16.3526 6.4709 16.4208 5.93466 16.2771C4.7677 15.9644 4.07517 14.7649 4.38786 13.5979L6.16724 6.95721Z" fill="black"/>
</svg>
