<svg width="24" height="26" viewBox="0 0 24 26" fill="none" xmlns="http://www.w3.org/2000/svg">
<path d="M12.7695 3.6088C11.9345 3.34513 11.1322 3.70618 10.3627 4.23209C9.5898 4.76029 8.65177 5.59783 7.47816 6.64573L6.43797 7.57447C6.23851 7.75256 6.15785 7.82428 6.07791 7.88882C5.40104 8.43524 4.5893 8.75092 3.74617 8.79562C3.6466 8.8009 3.54225 8.80113 3.28377 8.80113L3.2422 8.80112C3.01938 8.80105 2.8477 8.801 2.69421 8.8196C1.41758 8.97436 0.409921 10.066 0.267071 11.449C0.249896 11.6153 0.249945 11.8013 0.250007 12.0427V13.3751C0.249945 13.6165 0.249896 13.8024 0.267071 13.9687C0.409921 15.3517 1.41758 16.4434 2.69421 16.5981C2.84771 16.6167 3.01939 16.6167 3.24221 16.6166L3.28377 16.6166C3.54225 16.6166 3.6466 16.6168 3.74617 16.6221C4.5893 16.6668 5.40104 16.9825 6.07791 17.5289C6.15785 17.5934 6.23851 17.6652 6.43797 17.8433L7.47814 18.772C8.65176 19.8199 9.5898 20.6574 10.3627 21.1856C11.1322 21.7116 11.9345 22.0726 12.7695 21.8089C13.0467 21.7214 13.3094 21.5872 13.548 21.4112C14.2669 20.8808 14.5199 19.9804 14.6347 19.0026C14.75 18.0206 14.75 16.7037 14.75 15.0561V10.3616C14.75 8.71403 14.75 7.39716 14.6347 6.41511C14.5199 5.43729 14.2669 4.53696 13.548 4.00657C13.3094 3.83054 13.0467 3.69631 12.7695 3.6088Z" fill="white"/>
<path d="M19.5303 4.55101C19.2375 4.23371 18.7626 4.23371 18.4697 4.55101C18.1768 4.86831 18.1768 5.38275 18.4697 5.70006L19.1697 6.45839C19.7784 7.11782 20.0473 7.41028 20.2496 7.67251C22.4986 10.5881 22.4986 14.8296 20.2496 17.7452C20.0473 18.0075 19.7784 18.2999 19.1697 18.9593L18.4697 19.7177C18.1768 20.035 18.1768 20.5494 18.4697 20.8667C18.7626 21.184 19.2375 21.184 19.5303 20.8667L20.266 20.0698C20.8295 19.4593 21.1497 19.1124 21.4006 18.7872C24.1149 15.2684 24.1149 10.1493 21.4006 6.63051C21.1497 6.30531 20.8295 5.95841 20.266 5.34792L19.5303 4.55101Z" fill="white"/>
<path d="M17.5303 7.80101C17.2375 7.48371 16.7626 7.48371 16.4697 7.80101C16.1768 8.11831 16.1768 8.63275 16.4697 8.95006L16.8697 9.38339C16.9314 9.45023 16.9566 9.47759 16.9769 9.50018C18.5796 11.287 18.5796 14.1308 16.9769 15.9175C16.9566 15.9401 16.9314 15.9675 16.8697 16.0343L16.4697 16.4677C16.1768 16.785 16.1768 17.2994 16.4697 17.6167C16.7626 17.934 17.2375 17.934 17.5303 17.6167L17.9357 17.1776C17.9904 17.1184 18.0239 17.082 18.0526 17.05C20.2211 14.6326 20.2211 10.7851 18.0526 8.36771C18.0239 8.33569 17.9905 8.2995 17.9357 8.2401L17.5303 7.80101Z" fill="white"/>
</svg>
