<svg width="20" height="20" viewBox="0 0 20 20" fill="none" xmlns="http://www.w3.org/2000/svg">
<path d="M9.24966 1.04167C6.42003 1.04167 4.23071 3.5217 4.58168 6.32947L4.64781 6.85851C4.74458 7.63264 4.4618 8.40589 3.88846 8.93496C2.70039 10.0313 2.37031 11.7762 3.07586 13.2308L3.16198 13.4083C3.81962 14.7641 5.19404 15.625 6.7009 15.625H13.5516C14.8513 15.625 16.061 14.961 16.7589 13.8645C17.744 12.3166 17.4831 10.286 16.1387 9.03748L16.1021 9.00351C15.4867 8.43195 15.1836 7.59928 15.2878 6.76585L15.3417 6.33507C15.693 3.52432 13.5014 1.04167 10.6688 1.04167H9.24966Z" fill="white"/>
<path d="M8.1525 17.125C7.94539 16.8489 7.55364 16.7929 7.2775 17C7.00136 17.2071 6.9454 17.5989 7.1525 17.875L7.4025 18.2083C8.7775 20.0417 11.5275 20.0417 12.9025 18.2083L13.1525 17.875C13.3596 17.5989 13.3036 17.2071 13.0275 17C12.7514 16.7929 12.3596 16.8489 12.1525 17.125L11.9025 17.4583C11.0275 18.625 9.2775 18.625 8.4025 17.4583L8.1525 17.125Z" fill="white"/>
</svg>
