<svg width="54" height="54" viewBox="0 0 54 54" fill="none" xmlns="http://www.w3.org/2000/svg">
<rect width="54" height="54" rx="27" fill="black"/>
<path d="M27.7695 18.3312C26.9345 18.0878 26.1322 18.4211 25.3627 18.9065C24.5898 19.3941 23.6518 20.1672 22.4782 21.1345L21.438 21.9918C21.2385 22.1562 21.1578 22.2224 21.0779 22.282C20.401 22.7864 19.5893 23.0778 18.7462 23.119C18.6466 23.1239 18.5423 23.1241 18.2838 23.1241L18.2422 23.1241C18.0194 23.124 17.8477 23.124 17.6942 23.1412C16.4176 23.284 15.4099 24.2917 15.2671 25.5683C15.2499 25.7218 15.2499 25.8935 15.25 26.1163V27.3462C15.2499 27.569 15.2499 27.7407 15.2671 27.8942C15.4099 29.1708 16.4176 30.1785 17.6942 30.3213C17.8477 30.3385 18.0194 30.3385 18.2422 30.3384L18.2838 30.3384C18.5423 30.3384 18.6466 30.3386 18.7462 30.3435C19.5893 30.3847 20.401 30.6761 21.0779 31.1805C21.1579 31.2401 21.2385 31.3063 21.438 31.4707L22.4781 32.328C23.6518 33.2953 24.5898 34.0684 25.3627 34.556C26.1322 35.0414 26.9345 35.3747 27.7695 35.1313C28.0467 35.0505 28.3094 34.9266 28.548 34.7641C29.2669 34.2746 29.5199 33.4435 29.6347 32.5409C29.75 31.6344 29.75 30.4188 29.75 28.8979V24.5646C29.75 23.0437 29.75 21.8281 29.6347 20.9216C29.5199 20.019 29.2669 19.188 28.548 18.6984C28.3094 18.5359 28.0467 18.412 27.7695 18.3312Z" fill="white"/>
<path d="M34.5303 19.2009C34.2375 18.908 33.7626 18.908 33.4697 19.2009C33.1768 19.4938 33.1768 19.9687 33.4697 20.2616L34.1697 20.9616C34.7784 21.5703 35.0473 21.8403 35.2496 22.0823C37.4986 24.7736 37.4986 28.6889 35.2496 31.3802C35.0473 31.6223 34.7784 31.8922 34.1697 32.5009L33.4697 33.2009C33.1768 33.4938 33.1768 33.9687 33.4697 34.2616C33.7626 34.5545 34.2375 34.5545 34.5303 34.2616L35.266 33.5259C35.8295 32.9624 36.1497 32.6422 36.4006 32.342C39.1149 29.0939 39.1149 24.3686 36.4006 21.1205C36.1497 20.8203 35.8295 20.5001 35.266 19.9365L34.5303 19.2009Z" fill="white"/>
<path d="M32.5303 22.2009C32.2375 21.908 31.7626 21.908 31.4697 22.2009C31.1768 22.4938 31.1768 22.9687 31.4697 23.2616L31.8697 23.6616C31.9314 23.7233 31.9566 23.7485 31.9769 23.7694C33.5796 25.4187 33.5796 28.0438 31.9769 29.6931C31.9566 29.714 31.9314 29.7392 31.8697 29.8009L31.4697 30.2009C31.1768 30.4938 31.1768 30.9687 31.4697 31.2616C31.7626 31.5545 32.2375 31.5545 32.5303 31.2616L32.9357 30.8562C32.9904 30.8016 33.0239 30.768 33.0526 30.7385C35.2211 28.507 35.2211 24.9555 33.0526 22.724C33.0239 22.6945 32.9905 22.6611 32.9357 22.6062L32.5303 22.2009Z" fill="white"/>
</svg>
