<svg width="22" height="22" viewBox="0 0 22 22" fill="none" xmlns="http://www.w3.org/2000/svg">
<path d="M7.5625 12.8333C7.5625 12.4536 7.8703 12.1458 8.25 12.1458H13.75C14.1297 12.1458 14.4375 12.4536 14.4375 12.8333C14.4375 13.213 14.1297 13.5208 13.75 13.5208H8.25C7.8703 13.5208 7.5625 13.213 7.5625 12.8333Z" fill="black"/>
<path fill-rule="evenodd" clip-rule="evenodd" d="M8.25 1.14584C8.6297 1.14584 8.9375 1.45365 8.9375 1.83334V2.9889C9.55097 2.97918 10.2326 2.97918 10.9899 2.97918H11.0101C11.7674 2.97918 12.449 2.97918 13.0625 2.9889V1.83334C13.0625 1.45365 13.3703 1.14584 13.75 1.14584C14.1297 1.14584 14.4375 1.45365 14.4375 1.83334V3.03746C15.8234 3.12435 16.8882 3.34891 17.7648 3.98582C18.2122 4.31092 18.6058 4.70443 18.9309 5.15189C19.6659 6.16358 19.8517 7.42581 19.9106 9.14314C19.9375 9.92891 19.9375 10.8432 19.9375 11.9066V11.9268C19.9375 12.9902 19.9375 13.9044 19.9106 14.6902C19.8517 16.4075 19.6659 17.6698 18.9309 18.6815C18.6058 19.1289 18.2122 19.5224 17.7648 19.8475C16.7531 20.5826 15.4909 20.7684 13.7735 20.8273C12.9877 20.8542 12.0734 20.8542 11.0099 20.8542H10.9585C9.27502 20.8542 7.95539 20.8542 6.90844 20.7408C5.84003 20.625 4.97435 20.3845 4.23522 19.8475C3.78775 19.5224 3.39424 19.1289 3.06914 18.6815C2.53213 17.9423 2.29167 17.0766 2.17592 16.0082C2.06249 14.9613 2.06249 13.6416 2.0625 11.9582L2.0625 11.9065C2.0625 10.8432 2.0625 9.9289 2.08942 9.14314C2.14826 7.42581 2.3341 6.16358 3.06914 5.15189C3.39424 4.70443 3.78775 4.31092 4.23522 3.98582C5.11184 3.34891 6.17658 3.12435 7.5625 3.03746V1.83334C7.5625 1.45365 7.8703 1.14584 8.25 1.14584ZM7.5625 4.41582C6.31395 4.50169 5.59329 4.69871 5.04342 5.09821C4.71268 5.33851 4.42183 5.62936 4.18154 5.9601C3.78203 6.50997 3.58501 7.23063 3.49915 8.47918H18.5009C18.415 7.23063 18.218 6.50997 17.8185 5.9601C17.5782 5.62936 17.2873 5.33851 16.9566 5.09821C16.4067 4.69871 15.686 4.50169 14.4375 4.41582V4.58334C14.4375 4.96304 14.1297 5.27084 13.75 5.27084C13.3703 5.27084 13.0625 4.96304 13.0625 4.58334V4.36406C12.4579 4.35422 11.7769 4.35418 11 4.35418C10.2231 4.35418 9.54212 4.35422 8.9375 4.36406V4.58334C8.9375 4.96304 8.6297 5.27084 8.25 5.27084C7.8703 5.27084 7.5625 4.96304 7.5625 4.58334V4.41582ZM18.5526 9.85418H3.44739C3.43755 10.4588 3.4375 11.1397 3.4375 11.9167C3.4375 13.6506 3.43844 14.8959 3.54292 15.8601C3.646 16.8116 3.84321 17.4076 4.18154 17.8733C4.42183 18.204 4.71268 18.4948 5.04342 18.7351C5.50909 19.0735 6.10512 19.2707 7.05654 19.3738C8.02083 19.4782 9.26606 19.4792 11 19.4792C11.7777 19.4792 12.4591 19.4791 13.0642 19.4693C13.0682 19.0342 13.0817 18.7139 13.1274 18.4255C13.4846 16.1701 15.2534 14.4013 17.5088 14.0441C17.7972 13.9984 18.1175 13.9849 18.5526 13.9808C18.5625 13.3758 18.5625 12.6943 18.5625 11.9167C18.5625 11.1397 18.5625 10.4588 18.5526 9.85418ZM18.5007 15.3567C18.1295 15.361 17.9118 15.3724 17.7239 15.4021C16.0569 15.6662 14.7495 16.9736 14.4855 18.6406C14.4557 18.8285 14.4443 19.0462 14.4401 19.4174C15.687 19.3314 16.4071 19.1344 16.9566 18.7351C17.2873 18.4948 17.5782 18.204 17.8185 17.8733C18.2177 17.3238 18.4147 16.6037 18.5007 15.3567Z" fill="black"/>
</svg>
