<svg width="18" height="18" viewBox="0 0 18 18" fill="none" xmlns="http://www.w3.org/2000/svg">
<path d="M9 6.5625L6 6.5625C5.68934 6.5625 5.4375 6.31066 5.4375 6C5.4375 5.68934 5.68934 5.4375 6 5.4375L9 5.4375C9.31066 5.4375 9.5625 5.68934 9.5625 6C9.5625 6.31066 9.31066 6.5625 9 6.5625Z" fill="black"/>
<path d="M5.4375 9C5.4375 8.68934 5.68934 8.4375 6 8.4375H12C12.3107 8.4375 12.5625 8.68934 12.5625 9C12.5625 9.31066 12.3107 9.5625 12 9.5625H6C5.68934 9.5625 5.4375 9.31066 5.4375 9Z" fill="black"/>
<path fill-rule="evenodd" clip-rule="evenodd" d="M8.22483 0.9375H9.77517C10.804 0.937497 11.6105 0.937494 12.2588 0.990459C12.9189 1.04439 13.4642 1.15603 13.9578 1.40753C14.7693 1.82099 15.429 2.48072 15.8425 3.29217C16.094 3.78576 16.2056 4.3311 16.2595 4.9912C16.3125 5.63946 16.3125 6.44603 16.3125 7.47482V9.54239C16.3125 9.73475 16.3125 9.85186 16.3077 9.95393C16.2025 12.1753 14.4253 13.9525 12.2039 14.0577C12.1018 14.0625 11.9729 14.0625 11.7591 14.0625H11.7378L11.6813 14.0626C11.0309 14.0667 10.3974 14.2698 9.86569 14.6444L9.82886 14.6706L7.87081 16.0693C6.74243 16.8752 5.25966 15.7113 5.77466 14.4238C5.84387 14.2507 5.71643 14.0625 5.53006 14.0625H5.07874C3.20581 14.0625 1.6875 12.5442 1.6875 10.6713L1.6875 7.47483C1.6875 6.44604 1.68749 5.63946 1.74046 4.9912C1.79439 4.3311 1.90603 3.78576 2.15753 3.29217C2.57099 2.48072 3.23072 1.82099 4.04217 1.40753C4.53576 1.15603 5.0811 1.04439 5.7412 0.990459C6.38946 0.937494 7.19604 0.937497 8.22483 0.9375ZM5.83281 2.11172C5.24228 2.15997 4.86148 2.25269 4.55291 2.40992C3.95314 2.71551 3.46551 3.20314 3.15992 3.80291C3.00269 4.11148 2.90997 4.49228 2.86172 5.08281C2.81294 5.67991 2.8125 6.44062 2.8125 7.5V10.6713C2.8125 11.9229 3.82713 12.9375 5.07874 12.9375H5.53006C6.51233 12.9375 7.184 13.9296 6.81919 14.8416C6.72148 15.0859 7.00282 15.3067 7.21691 15.1538L9.17496 13.7552L9.21767 13.7248C9.937 13.2179 10.7942 12.9432 11.6741 12.9376L11.7378 12.9375C11.9791 12.9375 12.0789 12.9373 12.1507 12.9339C13.7926 12.8562 15.1062 11.5427 15.1839 9.90073C15.1873 9.82876 15.1875 9.74029 15.1875 9.52413V7.5C15.1875 6.44062 15.1871 5.67991 15.1383 5.08281C15.09 4.49228 14.9973 4.11148 14.8401 3.80291C14.5345 3.20314 14.0469 2.71551 13.4471 2.40992C13.1385 2.25269 12.7577 2.15997 12.1672 2.11172C11.5701 2.06294 10.8094 2.0625 9.75 2.0625H8.25C7.19062 2.0625 6.42991 2.06294 5.83281 2.11172Z" fill="black"/>
</svg>
