<svg width="40" height="40" viewBox="0 0 40 40" fill="none" xmlns="http://www.w3.org/2000/svg">
<rect x="0.25" y="0.25" width="39.5" height="39.5" rx="19.75" stroke="#C9CBD1" stroke-width="0.5"/>
<path d="M26.8016 14.1564C27.0661 13.8919 27.0661 13.463 26.8016 13.1984C26.537 12.9339 26.1081 12.9339 25.8436 13.1984L20 19.042L14.1564 13.1984C13.8919 12.9339 13.463 12.9339 13.1984 13.1984C12.9339 13.463 12.9339 13.8919 13.1984 14.1564L19.042 20L13.1984 25.8436C12.9339 26.1081 12.9339 26.537 13.1984 26.8016C13.463 27.0661 13.8919 27.0661 14.1564 26.8016L20 20.958L25.8436 26.8016C26.1081 27.0661 26.537 27.0661 26.8016 26.8016C27.0661 26.537 27.0661 26.1081 26.8016 25.8436L20.958 20L26.8016 14.1564Z" fill="black"/>
</svg>
