<svg width="20" height="20" viewBox="0 0 20 20" fill="none" xmlns="http://www.w3.org/2000/svg">
<path fill-rule="evenodd" clip-rule="evenodd" d="M10.0002 1.04169C7.81404 1.04169 6.04183 2.81389 6.04183 5.00002V5.20835H3.3335C2.98832 5.20835 2.7085 5.48818 2.7085 5.83335C2.7085 6.17853 2.98832 6.45835 3.3335 6.45835H16.6668C17.012 6.45835 17.2918 6.17853 17.2918 5.83335C17.2918 5.48818 17.012 5.20835 16.6668 5.20835H13.9585V5.00002C13.9585 2.81389 12.1863 1.04169 10.0002 1.04169ZM10.0002 2.29169C11.4959 2.29169 12.7085 3.50425 12.7085 5.00002V5.20835H7.29183V5.00002C7.29183 3.50425 8.50439 2.29169 10.0002 2.29169Z" fill="#6A6C72"/>
<path d="M4.78903 7.4409C4.75638 7.09727 4.45134 6.84517 4.10771 6.87782C3.76408 6.91047 3.51198 7.21551 3.54463 7.55914C3.62336 8.3877 3.76543 9.40861 3.94806 10.7209L4.18268 12.4068C4.40699 14.0191 4.5342 14.9334 4.80941 15.6825C5.32158 17.0765 6.23521 18.194 7.41021 18.6899C8.04827 18.9591 8.7781 18.9588 9.8646 18.9584H10.1357C11.2222 18.9588 11.9521 18.9591 12.5901 18.6899C13.7651 18.194 14.6787 17.0765 15.1909 15.6825C15.4661 14.9334 15.5933 14.0191 15.8176 12.4068L16.0523 10.7209C16.2349 9.40862 16.377 8.38771 16.4557 7.55914C16.4883 7.21551 16.2362 6.91047 15.8926 6.87782C15.549 6.84517 15.2439 7.09727 15.2113 7.4409C15.1354 8.23921 14.9972 9.23338 14.8121 10.5634L14.5935 12.1343C14.3514 13.874 14.2405 14.6447 14.0176 15.2514C13.5877 16.4215 12.8728 17.2138 12.1041 17.5382C11.729 17.6965 11.2745 17.7084 10.0002 17.7084C8.72586 17.7084 8.27136 17.6965 7.89619 17.5382C7.12749 17.2138 6.41263 16.4215 5.98272 15.2514C5.75979 14.6447 5.64892 13.874 5.40681 12.1343L5.1882 10.5635C5.00309 9.23338 4.86488 8.23921 4.78903 7.4409Z" fill="#6A6C72"/>
<path d="M8.9585 8.33335C8.9585 7.98818 8.67867 7.70835 8.3335 7.70835C7.98832 7.70835 7.7085 7.98818 7.7085 8.33335V15C7.7085 15.3452 7.98832 15.625 8.3335 15.625C8.67867 15.625 8.9585 15.3452 8.9585 15V8.33335Z" fill="#6A6C72"/>
<path d="M12.2918 8.33335C12.2918 7.98818 12.012 7.70835 11.6668 7.70835C11.3217 7.70835 11.0418 7.98818 11.0418 8.33335V15C11.0418 15.3452 11.3217 15.625 11.6668 15.625C12.012 15.625 12.2918 15.3452 12.2918 15V8.33335Z" fill="#6A6C72"/>
</svg>
