<svg width="20" height="20" viewBox="0 0 20 20" fill="none" xmlns="http://www.w3.org/2000/svg">
<path d="M15.2827 8.27796C15.5743 7.98376 15.5722 7.50889 15.278 7.21731C14.9838 6.92573 14.5089 6.92784 14.2173 7.22204L12.47 8.98501C11.7609 9.7005 11.2728 10.1913 10.8593 10.5234C10.4576 10.846 10.1996 10.9567 9.9685 10.9861C9.82341 11.0046 9.67659 11.0046 9.5315 10.9861C9.30042 10.9567 9.0424 10.846 8.64071 10.5234C8.22718 10.1913 7.73914 9.70051 7.03 8.98501L5.28269 7.22204C4.99111 6.92784 4.51624 6.92573 4.22204 7.21731C3.92784 7.50889 3.92573 7.98376 4.21731 8.27796L5.99609 10.0727C6.66604 10.7487 7.21359 11.3011 7.70146 11.6929C8.20879 12.1004 8.72373 12.3953 9.34184 12.4741C9.61287 12.5086 9.88714 12.5086 10.1582 12.4741C10.7763 12.3953 11.2912 12.1004 11.7985 11.6929C12.2864 11.3011 12.834 10.7487 13.5039 10.0727L15.2827 8.27796Z" fill="#6A6C72"/>
</svg>
