<svg width="20" height="20" viewBox="0 0 20 20" fill="none" xmlns="http://www.w3.org/2000/svg">
<path fill-rule="evenodd" clip-rule="evenodd" d="M18.7241 3.82138C18.9937 3.60575 19.0374 3.21244 18.8217 2.9429C18.6061 2.67336 18.2128 2.62966 17.9432 2.84529L15.1721 5.06218C13.7745 3.80694 11.9917 2.70834 10.0003 2.70834C8.21622 2.70834 6.60305 3.59083 5.29345 4.6631C3.97671 5.74122 2.90003 7.06554 2.17652 8.07335L2.11686 8.15633C1.68131 8.76152 1.32278 9.2597 1.32278 9.99998C1.32277 10.7403 1.68123 11.2384 2.11669 11.8435L2.17634 11.9264C2.63159 12.5606 3.22456 13.317 3.92721 14.0581L1.27658 16.1786C1.00704 16.3943 0.963341 16.7876 1.17897 17.0571C1.3946 17.3266 1.78791 17.3703 2.05745 17.1547L18.7241 3.82138ZM10.0003 3.95834C11.4818 3.95834 12.919 4.75775 14.1814 5.85476L12.0008 7.59922C11.4592 7.14753 10.7615 6.875 10.0003 6.875C8.27446 6.875 6.87535 8.27411 6.87535 10C6.87535 10.5128 6.99925 10.9975 7.21859 11.425L4.90702 13.2743C4.22284 12.5621 3.64034 11.8223 3.19177 11.1974C2.67195 10.4733 2.57278 10.2988 2.57278 9.99999C2.57278 9.70122 2.67199 9.52661 3.19195 8.80232C3.88301 7.83971 4.88658 6.61179 6.08535 5.63026C7.29126 4.64289 8.62887 3.95834 10.0003 3.95834ZM10.0003 8.125C10.3639 8.125 10.7031 8.22817 10.9906 8.40739L8.22896 10.6167C8.1618 10.4238 8.12535 10.2163 8.12535 10C8.12535 8.96447 8.96481 8.125 10.0003 8.125Z" fill="#6A6C72"/>
<path d="M16.9965 6.9923C16.778 6.72503 16.3843 6.68544 16.117 6.90387C15.8497 7.1223 15.8101 7.51605 16.0286 7.78332C16.3207 8.14071 16.5821 8.48661 16.8087 8.80226C17.3287 9.5266 17.4279 9.70123 17.4279 10C17.4279 10.2988 17.3287 10.4734 16.8087 11.1977C16.1177 12.1603 15.1141 13.3882 13.9153 14.3697C12.7094 15.3571 11.3718 16.0417 10.0003 16.0417C8.82967 16.0417 7.68217 15.5434 6.61496 14.7768C6.3346 14.5755 5.94409 14.6395 5.74272 14.9198C5.54135 15.2002 5.60538 15.5907 5.88574 15.7921C7.07285 16.6447 8.47334 17.2917 10.0003 17.2917C11.7845 17.2917 13.3976 16.4092 14.7072 15.3369C16.024 14.2588 17.1007 12.9345 17.8242 11.9267L17.8838 11.8437C18.3194 11.2385 18.6779 10.7403 18.6779 10C18.6779 9.25971 18.3194 8.7615 17.8838 8.15627L17.8241 8.07328C17.5844 7.73935 17.3071 7.37245 16.9965 6.9923Z" fill="#6A6C72"/>
<path d="M13.1253 10C13.1253 9.65482 12.8455 9.375 12.5003 9.375C12.1552 9.375 11.8753 9.65482 11.8753 10C11.8753 11.0355 11.0359 11.875 10.0003 11.875C9.65517 11.875 9.37535 12.1548 9.37535 12.5C9.37535 12.8452 9.65517 13.125 10.0003 13.125C11.7262 13.125 13.1253 11.7259 13.1253 10Z" fill="#6A6C72"/>
</svg>
