<svg width="20" height="20" viewBox="0 0 20 20" fill="none" xmlns="http://www.w3.org/2000/svg">
<path fill-rule="evenodd" clip-rule="evenodd" d="M18.3332 10C18.3332 14.6024 14.6022 18.3333 9.99984 18.3333C5.39746 18.3333 1.6665 14.6024 1.6665 10C1.6665 5.39762 5.39746 1.66666 9.99984 1.66666C14.6022 1.66666 18.3332 5.39762 18.3332 10ZM11.2986 6.38448C10.4886 5.30452 8.79908 5.5787 8.37219 6.85938L8.09276 7.69764C7.98361 8.02511 7.62966 8.20208 7.3022 8.09293C6.97473 7.98377 6.79776 7.62982 6.90691 7.30236L7.18633 6.46409C7.93209 4.22683 10.8836 3.74786 12.2986 5.63448C13.1275 6.73962 13.0696 8.2741 12.16 9.31373L11.394 10.1892C10.8981 10.7558 10.6248 11.4832 10.6248 12.2362V12.5C10.6248 12.8452 10.345 13.125 9.99984 13.125C9.65466 13.125 9.37484 12.8452 9.37484 12.5V12.2362C9.37484 11.1804 9.75803 10.1606 10.4532 9.36603L11.2193 8.4906C11.74 7.89548 11.7731 7.0171 11.2986 6.38448ZM9.99984 15.8333C10.4601 15.8333 10.8332 15.4602 10.8332 15C10.8332 14.5398 10.4601 14.1667 9.99984 14.1667C9.5396 14.1667 9.1665 14.5398 9.1665 15C9.1665 15.4602 9.5396 15.8333 9.99984 15.8333Z" fill="white"/>
</svg>
