<svg width="68" height="68" viewBox="0 0 68 68" fill="none" xmlns="http://www.w3.org/2000/svg">
<rect x="2" y="2" width="64" height="64" rx="32" fill="white"/>
<rect x="2" y="2" width="64" height="64" rx="32" stroke="#FF3489" stroke-width="3"/>
<g clip-path="url(#clip0_3_207)">
<path d="M50.241 54.0658C48.3994 57.8945 43.0353 58.3536 43.0353 58.3536L24.4045 58.8991C24.4045 58.8991 24.1101 58.8944 23.6087 58.8864H23.5997C21.9844 58.8122 18.3049 58.3929 16.109 56.1111C13.7487 53.6589 14.8689 50.959 15.6314 49.4584C15.8453 49.037 16.0289 48.7144 16.0945 48.5243C16.4032 47.6369 16.2787 45.2378 16.8353 44.0589C17.2602 43.1562 18.0959 42.3778 18.8519 41.7839C19.1022 41.5853 19.344 41.4075 19.559 41.2525C20.3769 40.6609 20.156 39.0384 20.1266 38.8474C25.1026 38.6324 41.8118 37.9149 46.0777 37.7907C46.4504 40.1769 46.8767 40.3089 47.4563 40.7128C47.8161 40.9645 48.2341 41.3202 48.7199 42.3669C49.942 45.0041 48.4719 46.6213 49.0869 47.7486C49.3268 48.1879 49.8716 48.6234 50.3177 49.257C50.9885 50.2131 51.4243 51.606 50.241 54.0658Z" fill="#5D5D5D"/>
<g opacity="0.2">
<path d="M50.241 54.6432C48.3994 58.4719 43.0353 58.931 43.0353 58.931L24.4045 59.4765C24.4045 59.4765 24.1101 59.4719 23.6087 59.4638H23.5997C21.9844 59.3896 18.3049 58.9703 16.109 56.6885C13.7487 54.2363 14.8689 51.5364 15.6314 50.0358C17.5876 52.5668 22.1627 55.9604 33.2258 55.9604C45.018 55.9604 48.9405 52.2633 50.3172 49.834C50.9885 50.7905 51.4243 52.1834 50.241 54.6432Z" fill="black"/>
</g>
<g opacity="0.2">
<path d="M47.4555 40.7128C34.3427 52.5159 22.7138 44.8621 18.8513 41.7841C19.1016 41.5855 19.3434 41.4077 19.5584 41.2527C20.3763 40.6611 20.1554 39.0386 20.126 38.8477C25.102 38.6327 41.8112 37.9152 46.0771 37.791C46.4496 40.1769 46.8759 40.309 47.4555 40.7128Z" fill="black"/>
</g>
<path d="M24.4042 59.3032C24.4021 59.3032 24.4 59.3032 24.398 59.3032C24.398 59.3032 24.1047 59.2986 23.605 59.2905H23.5994C23.5932 59.2905 23.5869 59.2903 23.5809 59.2901C22.706 59.2499 21.3678 59.1176 19.9607 58.7151C18.2149 58.2158 16.8211 57.4341 15.8175 56.3915C14.6241 55.1517 14.1227 53.6987 14.3276 52.0734C14.4938 50.7549 15.0961 49.6044 15.4559 48.9172C15.5739 48.692 15.6757 48.4973 15.7124 48.3916C15.8244 48.0694 15.8768 47.4478 15.9325 46.7894C16.0175 45.7817 16.114 44.6398 16.4694 43.8865C17.0358 42.6841 18.229 41.7149 19.3218 40.9251C19.8312 40.5568 19.8093 39.4453 19.7266 38.9091C19.709 38.7955 19.7407 38.68 19.8136 38.5911C19.8866 38.5022 19.9938 38.4487 20.1085 38.4438C25.1127 38.2274 41.7732 37.512 46.0654 37.3869C46.2688 37.3813 46.445 37.5273 46.4764 37.7284C46.793 39.7559 47.1175 39.9781 47.5664 40.2854C47.98 40.5686 48.4945 40.9209 49.0859 42.1968C49.8609 43.8694 49.6232 45.1882 49.4496 46.1512C49.3422 46.7472 49.2572 47.218 49.441 47.5549C49.5445 47.7445 49.7382 47.9554 49.9625 48.1997C50.4303 48.7091 51.0127 49.3432 51.2665 50.3094C51.5589 51.4222 51.3425 52.7083 50.6051 54.2409C50.1571 55.1722 49.4771 55.9902 48.5834 56.6721C47.8781 57.2104 47.0394 57.6651 46.0903 58.0234C44.4852 58.6296 43.1269 58.7513 43.0696 58.7562C43.062 58.7569 43.0546 58.7573 43.047 58.7576L24.4162 59.303C24.412 59.3032 24.4081 59.3032 24.4042 59.3032ZM23.6087 58.4823C23.6107 58.4823 23.6128 58.4823 23.6149 58.4823C24.0652 58.4897 24.3485 58.4941 24.4014 58.4948L43.0103 57.95C43.1331 57.938 44.3896 57.8048 45.8241 57.26C47.1814 56.7446 48.9863 55.7415 49.8766 53.8906C51.3254 50.8789 50.2393 49.6963 49.3669 48.7463C49.1175 48.4747 48.8817 48.2182 48.7312 47.9417C48.4111 47.3547 48.5291 46.7003 48.654 46.0075C48.8256 45.0559 49.0201 43.9772 48.3525 42.5365C47.8546 41.4622 47.4759 41.2029 47.1096 40.9521C46.8293 40.7602 46.5392 40.5616 46.2855 40.0868C46.0617 39.6684 45.889 39.0798 45.7361 38.205C41.0894 38.3514 25.8888 39.0027 20.5715 39.2324C20.6103 39.8933 20.5533 41.0316 19.7954 41.5798C19.1329 42.0585 17.7547 43.0547 17.2005 44.2308C16.907 44.8524 16.8172 45.9175 16.738 46.8571C16.6754 47.5984 16.6213 48.2387 16.4759 48.6569C16.4195 48.819 16.3103 49.0275 16.172 49.2917C15.4783 50.6168 14.035 53.374 16.3999 55.8308C18.5038 58.0174 22.1349 58.4137 23.6087 58.4823Z" fill="black"/>
<path d="M43.9011 54.7298L43.8879 54.2932H23.6474L23.6014 57.0767L23.561 59.4763L23.4747 61.1177L23.1754 66.8033C23.1472 67.3409 23.5753 67.7923 24.1136 67.7923H31.3298V65.7133H35.9254V67.7923H43.0829C43.6018 67.7923 44.0226 67.3716 44.0226 66.8527V58.8197L43.9011 54.7298Z" fill="white"/>
<g opacity="0.2">
<path d="M44.0227 58.8199V60.9153C39.2574 61.4164 38.1282 59.4764 38.1282 59.4764C30.9085 61.6177 25.2691 61.3005 23.4746 61.1178L23.561 59.4764L23.6014 57.0768L28.5603 54.2933H41.4216L43.901 54.73L44.0227 58.8199Z" fill="#1A1A5A"/>
</g>
<path d="M39.9739 63.598C41.2833 63.598 42.3448 62.5366 42.3448 61.2273H37.6033C37.603 62.5366 38.6646 63.598 39.9739 63.598Z" fill="#FF3489"/>
<path d="M27.2796 63.7488C28.5889 63.7488 29.6505 62.6875 29.6505 61.3781H24.9089C24.9089 62.6875 25.9703 63.7488 27.2796 63.7488Z" fill="#FF3489"/>
<path d="M43.0831 68.1965H36.8128C36.1006 68.1965 35.5215 67.6172 35.5215 66.9052V62.2879H31.7341V66.9052C31.7341 67.6174 31.1547 68.1965 30.4428 68.1965H24.1138C23.7416 68.1965 23.3954 68.0478 23.1391 67.7776C22.8828 67.5075 22.7525 67.1539 22.7719 66.7821L23.1571 59.4623L23.2435 54.2863C23.2472 54.0658 23.427 53.8889 23.6476 53.8889H43.8881C44.1066 53.8889 44.2855 54.0626 44.292 54.281L44.4266 58.8078C44.4269 58.8118 44.4269 58.8159 44.4269 58.8198V66.8528C44.4269 67.5938 43.8239 68.1965 43.0831 68.1965ZM31.3297 61.4796H35.9254C36.1487 61.4796 36.3295 61.6605 36.3295 61.8838V66.9052C36.3295 67.1717 36.5463 67.3883 36.8126 67.3883H43.0829C43.3782 67.3883 43.6184 67.1481 43.6184 66.8528V58.8259L43.4955 54.6972H24.0445L23.9646 59.4831C23.9646 59.4879 23.9644 59.4928 23.9642 59.4976L23.5785 66.8246C23.5707 66.9729 23.6226 67.1137 23.7247 67.2213C23.8268 67.329 23.9649 67.3883 24.1131 67.3883H30.4421C30.7086 67.3883 30.9252 67.1715 30.9252 66.9052V61.8838C30.9256 61.6605 31.1067 61.4796 31.3297 61.4796Z" fill="black"/>
<path d="M37.8948 58.3273C37.8948 58.3273 25.6397 60.5705 23.5606 59.4761C21.4816 58.3818 20.3328 55.3181 21.1535 51.7074C21.9742 48.0964 23.3925 45.3891 30.2334 45.3891C37.0743 45.3891 36.6023 45.3891 36.6023 45.3891C36.6023 45.3891 43.749 44.5949 44.6242 51.379C45.4994 58.1631 44.5147 61.3362 37.8948 58.3273Z" fill="white"/>
<path d="M25.7951 59.8365C24.6813 59.8365 23.9255 59.7335 23.5341 59.5275C22.4873 58.9765 21.6638 57.9205 21.2152 56.5536C20.7427 55.1145 20.702 53.4343 21.0974 51.6945C21.4738 50.0381 22.0132 48.3413 23.3983 47.1504C24.0957 46.5507 24.9561 46.1133 26.0285 45.8129C27.1857 45.4889 28.5611 45.3314 30.2335 45.3314H36.5994C36.6883 45.3222 38.4562 45.1527 40.3038 45.7854C41.4141 46.1657 42.3362 46.7569 43.0445 47.5425C43.9296 48.5242 44.4803 49.8125 44.6815 51.3717C44.9549 53.4911 45.0209 55.0408 44.8891 56.249C44.7404 57.6113 44.3319 58.5218 43.6402 59.0328C43.083 59.4446 42.354 59.5954 41.4121 59.4935C40.4533 59.3901 39.3002 59.0282 37.8874 58.3874C37.6304 58.4341 34.6716 58.9668 31.5149 59.3695C29.0756 59.6808 27.1647 59.8365 25.7951 59.8365ZM30.2335 45.4471C27.0866 45.4471 24.8755 46.0329 23.4736 47.2381C22.1137 48.4073 21.5819 50.0834 21.2098 51.7204C20.8191 53.4399 20.8588 55.0986 21.3246 56.5178C21.7638 57.8561 22.5677 58.8885 23.5877 59.4254C25.6254 60.4978 37.7621 58.2932 37.8845 58.2708L37.9022 58.2676L37.9186 58.2749C39.5799 59.0301 40.9151 59.4062 41.9478 59.4062C42.6122 59.4062 43.1511 59.2506 43.5717 58.94C44.236 58.4493 44.6293 57.5651 44.7743 56.2366C44.905 55.0378 44.8392 53.4967 44.5669 51.3867C44.1187 47.9134 41.9829 46.4839 40.2699 45.8962C38.4195 45.2614 36.6495 45.4425 36.6093 45.4466V45.4471H30.2335Z" fill="black"/>
<path d="M28.1237 48.2439C28.1233 48.2439 28.1226 48.2439 28.1221 48.2439C27.9309 48.243 27.7764 48.0871 27.7773 47.8959C27.7838 46.5122 28.3641 45.6606 28.8495 45.1897C29.38 44.6754 29.9169 44.4925 29.9395 44.4852C30.121 44.4246 30.3171 44.5228 30.3776 44.7043C30.4378 44.8853 30.3406 45.0809 30.16 45.1419C30.1503 45.1454 29.7257 45.2964 29.3098 45.7086C28.7567 46.2568 28.474 46.9939 28.4699 47.8991C28.4692 48.0899 28.3142 48.2439 28.1237 48.2439Z" fill="black"/>
<path d="M28.1351 50.1581C27.4751 50.1581 26.938 49.6212 26.938 48.961C26.938 48.3008 27.4749 47.7639 28.1351 47.7639C28.7951 47.7639 29.3322 48.3008 29.3322 48.961C29.3322 49.6212 28.7951 50.1581 28.1351 50.1581ZM28.1351 48.4567C27.8571 48.4567 27.6308 48.683 27.6308 48.961C27.6308 49.2391 27.8571 49.4654 28.1351 49.4654C28.4131 49.4654 28.6394 49.2391 28.6394 48.961C28.6394 48.683 28.4131 48.4567 28.1351 48.4567Z" fill="black"/>
<path d="M39.7255 48.3505C39.5343 48.3505 39.3791 48.1953 39.3791 48.0041C39.3791 46.8691 38.9094 46.0313 37.983 45.5138C37.2613 45.1106 36.5191 45.0538 36.5117 45.0533C36.3212 45.0397 36.1771 44.8746 36.1903 44.6841C36.2035 44.4936 36.3681 44.3495 36.5586 44.3622C36.5944 44.3645 37.4426 44.4259 38.2975 44.8961C39.1071 45.3413 40.0719 46.2419 40.0719 48.0041C40.0719 48.1953 39.917 48.3505 39.7255 48.3505Z" fill="black"/>
<path d="M41.7623 53.9801H40.9301C40.7389 53.9801 40.5837 53.8249 40.5837 53.6337C40.5837 53.4425 40.7389 53.2873 40.9301 53.2873H41.4619L41.8637 50.474C41.9438 49.9133 41.7681 49.3544 41.3815 48.9409C40.995 48.527 40.4495 48.3137 39.8847 48.3555L39.3834 48.3926C38.8598 48.4314 38.3918 48.679 38.065 49.0896C37.7382 49.5002 37.6022 50.0121 37.6821 50.5308L38.1061 53.2871H38.6412C38.8324 53.2871 38.9876 53.4423 38.9876 53.6335C38.9876 53.8247 38.8324 53.9799 38.6412 53.9799H37.8089C37.638 53.9799 37.4925 53.8552 37.4664 53.6861L36.9972 50.6361C36.8894 49.9345 37.0808 49.2136 37.5228 48.6582C37.9648 48.1028 38.6243 47.7541 39.3321 47.7017L39.8334 47.6645C40.6084 47.607 41.3573 47.8998 41.8877 48.4677C42.4182 49.0355 42.6595 49.8024 42.5496 50.5719L42.1053 53.6827C42.0808 53.8533 41.9346 53.9801 41.7623 53.9801Z" fill="black"/>
<path d="M25.7959 60.1812C24.611 60.1812 23.8145 60.0667 23.3725 59.8341C22.4366 59.3411 21.6727 58.4913 21.1635 57.3762C20.4262 55.7592 20.2828 53.7144 20.7596 51.618C21.1492 49.9039 21.7113 48.1445 23.1726 46.8882C23.9092 46.255 24.8128 45.7944 25.9351 45.4801C27.123 45.1473 28.5291 44.9857 30.2335 44.9857H36.5895C36.8749 44.9582 38.6454 44.8242 40.5217 45.4953C41.6648 45.9043 42.6153 46.5319 43.3466 47.3609C44.2534 48.389 44.8183 49.7235 45.0254 51.3278C45.3025 53.4751 45.3688 55.051 45.2339 56.2869C45.0741 57.7507 44.6204 58.74 43.8465 59.3118C43.2249 59.7711 42.3933 59.9482 41.3752 59.8383C40.4018 59.7332 39.2456 59.3764 37.8434 58.7476C37.2338 58.8568 34.4805 59.3406 31.559 59.7133C29.6177 59.9611 27.9806 60.1121 26.6937 60.1625C26.3727 60.175 26.0737 60.1812 25.7959 60.1812ZM30.2335 45.7937C27.1731 45.7937 25.0357 46.352 23.6995 47.5009C22.4158 48.6045 21.9069 50.2179 21.548 51.797C21.1104 53.7218 21.2351 55.5839 21.8992 57.0404C22.3336 57.9911 22.9735 58.71 23.7496 59.1187C24.1926 59.3517 25.7825 59.6351 31.4537 58.9116C34.7287 58.4938 37.7922 57.9354 37.8226 57.9297C37.9037 57.9149 37.9875 57.9251 38.0626 57.9592C39.4181 58.5753 40.5619 58.937 41.462 59.0342C42.2836 59.1229 42.9065 59.0007 43.3665 58.661C44.4971 57.8258 44.7615 55.596 44.2241 51.4305C43.8872 48.8197 42.5501 47.0785 40.2499 46.2557C38.4551 45.6138 36.7244 45.7835 36.6516 45.7911C36.6378 45.7925 36.6239 45.7932 36.6101 45.7932H30.2335V45.7937Z" fill="black"/>
<path d="M38.6444 62.3782L27.2046 64.4156L26.3444 59.587L24.6201 49.9099L36.0599 47.8713L37.9835 58.6656L38.0876 59.2522L38.4793 61.4483L38.6444 62.3782Z" fill="#53DBEA"/>
<path d="M37.0585 61.5395L28.2294 63.1543L27.5657 58.964L26.2349 50.5662L35.0638 48.9506L36.5484 58.3178L36.6285 58.8268L36.9311 60.7324L37.0585 61.5395Z" fill="white"/>
<g opacity="0.3">
<path d="M28.0991 52.029C28.3296 51.9468 28.5626 51.8775 28.7963 51.8115C29.03 51.7461 29.2646 51.6854 29.5002 51.6288C29.971 51.5159 30.4449 51.4185 30.9208 51.3312C31.3965 51.2436 31.8738 51.1633 32.3532 51.0952C32.8326 51.027 33.3139 50.9677 33.7997 50.9331C33.8425 50.9301 33.8796 50.9622 33.8826 51.0049C33.8852 51.0414 33.8621 51.0737 33.8288 51.0843C33.3647 51.2323 32.8959 51.3556 32.4253 51.47C31.9547 51.5845 31.4817 51.6868 31.0074 51.7819C30.5331 51.8773 30.0569 51.9625 29.5777 52.0323C29.338 52.0671 29.0977 52.0976 28.8563 52.1235C28.615 52.1489 28.3728 52.171 28.1282 52.18C28.0853 52.1817 28.049 52.1482 28.0474 52.105C28.0463 52.0704 28.0682 52.0401 28.0991 52.029Z" fill="black"/>
</g>
<g opacity="0.2">
<path d="M38.6447 62.3781L27.2047 64.4156L26.3447 59.587L37.603 58.3998L37.9838 58.6656L38.0877 59.2521C36.2888 59.6428 30.5947 60.8169 27.8328 60.6407L28.254 63.2439L38.4794 61.4482L38.6447 62.3781Z" fill="black"/>
</g>
<g opacity="0.3">
<path d="M28.3364 53.193C28.5669 53.1108 28.7999 53.0415 29.0336 52.9754C29.2673 52.9101 29.5019 52.8494 29.7375 52.7928C30.2083 52.6799 30.6822 52.5824 31.1581 52.4951C31.6338 52.4076 32.1111 52.3272 32.5905 52.2591C33.0699 52.191 33.5512 52.1316 34.037 52.097C34.0798 52.094 34.1169 52.1261 34.1199 52.1688C34.1225 52.2053 34.0994 52.2376 34.0661 52.2483C33.602 52.3963 33.1332 52.5196 32.6626 52.6339C32.192 52.7484 31.719 52.8507 31.2447 52.9459C30.7704 53.0412 30.2942 53.1265 29.815 53.1962C29.5753 53.2311 29.335 53.2616 29.0936 53.2874C28.8523 53.3128 28.6101 53.335 28.3655 53.344C28.3226 53.3456 28.2863 53.3121 28.2847 53.2689C28.2836 53.2343 28.3055 53.2041 28.3364 53.193Z" fill="black"/>
</g>
<path d="M28.5878 54.6982C28.4629 54.6982 28.3516 54.6097 28.3271 54.4825C28.2994 54.3384 28.3938 54.1989 28.5379 54.1712L34.2383 53.0754C34.3824 53.0477 34.5219 53.1422 34.5496 53.2863C34.5773 53.4304 34.4829 53.5699 34.3388 53.5976L28.6384 54.6933C28.6213 54.6965 28.6044 54.6982 28.5878 54.6982Z" fill="#B8B8FF"/>
<path d="M28.8251 55.862C28.7002 55.862 28.5889 55.7736 28.5644 55.6464C28.5367 55.5023 28.6311 55.3628 28.7752 55.3351L34.4756 54.2393C34.6197 54.2116 34.7592 54.3061 34.7869 54.4502C34.8146 54.5943 34.7202 54.7337 34.5761 54.7614L28.8757 55.8572C28.8586 55.8604 28.8417 55.862 28.8251 55.862Z" fill="#B8B8FF"/>
<path d="M29.0622 57.0258C28.9372 57.0258 28.8259 56.9374 28.8015 56.8102C28.7737 56.6661 28.8682 56.5266 29.0123 56.4989L34.7127 55.4031C34.8568 55.3754 34.9962 55.4699 35.024 55.614C35.0517 55.7581 34.9572 55.8975 34.8131 55.9253L29.1127 57.021C29.0957 57.0242 29.0788 57.0258 29.0622 57.0258Z" fill="#B8B8FF"/>
<path d="M29.299 58.1898C29.1741 58.1898 29.0628 58.1013 29.0383 57.9741C29.0106 57.83 29.105 57.6905 29.2491 57.6628L34.9495 56.5671C35.0936 56.5394 35.2331 56.6338 35.2608 56.7779C35.2885 56.922 35.194 57.0615 35.0499 57.0892L29.3496 58.1849C29.3327 58.1882 29.3158 58.1898 29.299 58.1898Z" fill="#B8B8FF"/>
<path d="M29.5363 59.3533C29.4114 59.3533 29.3001 59.2649 29.2756 59.1376C29.2479 58.9935 29.3423 58.854 29.4864 58.8263L35.1868 57.7306C35.3309 57.7029 35.4704 57.7973 35.4981 57.9414C35.5258 58.0855 35.4313 58.225 35.2872 58.2527L29.5869 59.3484C29.57 59.3519 29.5529 59.3533 29.5363 59.3533Z" fill="#B8B8FF"/>
<g opacity="0.3">
<path d="M29.7593 60.1756C29.9898 60.0934 30.2228 60.0241 30.4565 59.958C30.6902 59.8927 30.9248 59.832 31.1603 59.7754C31.6312 59.6625 32.105 59.565 32.581 59.4777C33.0567 59.3902 33.534 59.3098 34.0134 59.2417C34.4928 59.1736 34.9741 59.1142 35.4599 59.0796C35.5026 59.0766 35.5398 59.1087 35.5428 59.1514C35.5454 59.1879 35.5223 59.2202 35.489 59.2309C35.0249 59.3789 34.5561 59.5022 34.0855 59.6165C33.6148 59.731 33.1419 59.8333 32.6676 59.9285C32.1933 60.0239 31.7171 60.1091 31.2379 60.1788C30.9982 60.2137 30.7578 60.2442 30.5165 60.27C30.2752 60.2954 30.033 60.3176 29.7884 60.3266C29.7455 60.3282 29.7092 60.2947 29.7076 60.2515C29.7062 60.2171 29.7281 60.1869 29.7593 60.1756Z" fill="black"/>
</g>
<g opacity="0.3">
<path d="M29.9722 61.3455C30.2027 61.2633 30.4357 61.194 30.6694 61.128C30.9031 61.0626 31.1377 61.0019 31.3733 60.9453C31.8441 60.8324 32.318 60.7349 32.7939 60.6476C33.2696 60.5601 33.7469 60.4798 34.2263 60.4116C34.7057 60.3435 35.187 60.2842 35.6728 60.2495C35.7156 60.2465 35.7527 60.2786 35.7557 60.3213C35.7583 60.3578 35.7352 60.3902 35.7019 60.4008C35.2378 60.5488 34.769 60.6721 34.2984 60.7864C33.8278 60.901 33.3548 61.0035 32.8805 61.0984C32.4062 61.1938 31.93 61.279 31.4508 61.3487C31.2111 61.3836 30.9708 61.4141 30.7294 61.4399C30.4881 61.4653 30.2459 61.4875 30.0013 61.4965C29.9584 61.4981 29.9221 61.4646 29.9207 61.4215C29.9191 61.3868 29.9411 61.3566 29.9722 61.3455Z" fill="black"/>
</g>
<path d="M27.2042 64.7627C27.0396 64.7627 26.8934 64.6447 26.8636 64.4771L24.2793 49.9702C24.2631 49.8796 24.2837 49.7866 24.3364 49.7113C24.389 49.636 24.4691 49.5845 24.5597 49.5683L35.9997 47.5304C36.1881 47.497 36.368 47.6223 36.4015 47.8108L38.9857 62.3177C39.0019 62.4082 38.9814 62.5013 38.9287 62.5766C38.8761 62.6518 38.7959 62.7033 38.7054 62.7195L27.2654 64.7574C27.2448 64.7609 27.2243 64.7627 27.2042 64.7627ZM25.0222 50.1895L27.485 64.0145L38.2429 62.0981L35.78 48.2731L25.0222 50.1895Z" fill="black"/>
<path d="M39.8643 51.5707C38.9431 51.7583 37.4814 53.0884 37.4814 53.0884C37.4814 53.0884 35.9252 56.7134 38.0728 57.0169C40.2204 57.3203 39.9613 56.0022 42.9388 56.2149C44.0048 56.2911 44.5283 55.4025 44.6403 54.6199C44.7465 53.8756 44.2147 50.6854 39.8643 51.5707Z" fill="#FFC099"/>
<path d="M38.6665 57.1196C38.4871 57.1196 38.2885 57.1057 38.065 57.0741C37.6184 57.0111 37.2928 56.8028 37.0974 56.4555C36.4672 55.3352 37.3891 53.1581 37.4285 53.0657L37.4334 53.0542L37.4426 53.0458C37.5029 52.9911 38.9268 51.7028 39.853 51.5144C40.7728 51.3271 41.5875 51.3098 42.274 51.4626C42.8601 51.5931 43.3575 51.8478 43.7517 52.2196C44.6105 53.0295 44.7597 54.1922 44.6976 54.6281C44.6336 55.0761 44.4535 55.4844 44.1905 55.7781C43.8686 56.1375 43.4344 56.3083 42.9349 56.2728C41.3852 56.1622 40.7194 56.4707 40.132 56.743C39.7161 56.9353 39.3184 57.1196 38.6665 57.1196ZM37.5297 53.1227C37.4574 53.2964 36.618 55.3685 37.1978 56.3989C37.3747 56.7134 37.6719 56.9021 38.0809 56.9598C39.0831 57.1013 39.5466 56.8866 40.083 56.6379C40.6832 56.3598 41.3635 56.0446 42.9428 56.1573C43.9799 56.2315 44.4745 55.371 44.5828 54.6117C44.6424 54.1949 44.4981 53.0821 43.672 52.3034C42.8336 51.5127 41.5561 51.2853 39.8756 51.6273C39.0187 51.8019 37.6562 53.0094 37.5297 53.1227Z" fill="black"/>
<path d="M38.6689 57.4873C38.4726 57.4873 38.256 57.4723 38.014 57.4381C37.456 57.3594 37.0284 57.0818 36.7774 56.6357C36.4652 56.0805 36.428 55.2767 36.6667 54.246C36.8349 53.5214 37.0806 52.9448 37.091 52.9205C37.115 52.8647 37.1505 52.8145 37.1956 52.7737C37.354 52.6293 38.773 51.3588 39.7801 51.1537C41.1243 50.8803 42.2971 50.9468 43.2666 51.3519C44.0743 51.6893 44.699 52.2569 45.0255 52.9496C45.3188 53.5718 45.1735 54.1902 45.0957 54.5222C45.0809 54.5857 45.0669 54.6455 45.062 54.6797C44.9133 55.7207 44.1903 56.7303 42.9093 56.6389C41.4543 56.535 40.8608 56.81 40.287 57.0758C39.8489 57.279 39.3995 57.4873 38.6689 57.4873ZM37.8387 53.3399C37.7692 53.5156 37.608 53.9486 37.4925 54.4509C37.3113 55.2393 37.3207 55.8671 37.5189 56.2191C37.6401 56.4341 37.8352 56.5539 38.1327 56.5959C39.0275 56.7223 39.4055 56.547 39.9288 56.3045C40.5375 56.0223 41.2954 55.6713 42.9694 55.7907C43.9813 55.8632 44.1882 54.7781 44.2194 54.5599C44.2295 54.4883 44.2471 54.4142 44.2672 54.3285C44.3327 54.0493 44.4226 53.6667 44.2556 53.3127C44.1187 53.0219 43.7654 52.4827 42.9384 52.1372C42.1406 51.804 41.107 51.7523 39.9493 51.9878C39.3263 52.1146 38.2761 52.9538 37.8387 53.3399Z" fill="black"/>
<path d="M44.2573 54.2988C44.2525 54.2991 44.2393 54.2958 44.2296 54.2935C44.2195 54.2912 44.2074 54.2889 44.1966 54.2859L44.1287 54.2691L43.9904 54.2333L43.8507 54.1961L43.7807 54.1765C43.7571 54.1707 43.7336 54.164 43.71 54.1578C43.5218 54.1074 43.3322 54.0518 43.1383 54.0037L42.9921 53.9693L42.9187 53.9518L42.8448 53.9361C42.7953 53.9257 42.7459 53.9146 42.6963 53.9033C42.6464 53.894 42.5965 53.8839 42.5462 53.8739L42.4707 53.8582C42.4455 53.8529 42.4201 53.8495 42.3949 53.8446C42.3443 53.8354 42.2933 53.8259 42.2423 53.8158C42.14 53.7964 42.0368 53.7807 41.9319 53.7573L41.9301 53.7569C41.9072 53.7518 41.8927 53.7292 41.8977 53.7063C41.9012 53.6911 41.9123 53.6795 41.9259 53.6751C41.9769 53.6585 42.0284 53.643 42.0802 53.6287C42.1319 53.6144 42.1839 53.5985 42.2363 53.5881C42.2887 53.5767 42.3413 53.5661 42.3942 53.5557C42.4471 53.5449 42.5002 53.5368 42.5536 53.5296C42.6069 53.5225 42.6605 53.5151 42.7141 53.5089C42.7676 53.5038 42.8217 53.4998 42.8755 53.4962L42.9565 53.4904L43.0376 53.4883C43.0918 53.4869 43.1461 53.4855 43.2004 53.486C43.4177 53.4888 43.6366 53.504 43.8521 53.547C43.8788 53.5525 43.9061 53.5573 43.9329 53.5636L44.0132 53.5837C44.0398 53.5911 44.0666 53.5975 44.0931 53.6056L44.1726 53.6308C44.1989 53.6393 44.2255 53.6488 44.2516 53.659C44.2779 53.6689 44.3037 53.6788 44.3301 53.6906C44.3562 53.7019 44.382 53.7132 44.4084 53.7266C44.4217 53.7331 44.434 53.7395 44.4478 53.7469C44.4622 53.7546 44.473 53.7606 44.4919 53.7712C44.6256 53.8472 44.6725 54.0174 44.5966 54.1511C44.5488 54.2351 44.4638 54.285 44.3739 54.2912L44.2573 54.2988Z" fill="black"/>
<path d="M44.3305 55.2773C44.227 55.2784 44.1206 55.2697 44.0162 55.26C43.9114 55.2496 43.807 55.2359 43.7028 55.22C43.4943 55.1891 43.2869 55.1454 43.0789 55.1029C42.8708 55.0597 42.6627 55.0163 42.4538 54.9695C42.2445 54.9228 42.0351 54.8764 41.8224 54.8205L41.822 54.8203C41.7993 54.8143 41.7857 54.7912 41.7917 54.7683C41.7959 54.7528 41.8081 54.7415 41.8226 54.7378C42.0372 54.6845 42.2545 54.6494 42.472 54.6254C42.6895 54.6023 42.9075 54.5877 43.1251 54.5829C43.3426 54.5783 43.5601 54.578 43.7758 54.5965C43.8836 54.6053 43.9913 54.6178 44.0982 54.6353C44.2056 54.6531 44.3106 54.6739 44.4185 54.7064C44.5725 54.7531 44.6598 54.9157 44.6131 55.0699C44.5755 55.1948 44.4614 55.2757 44.3374 55.277L44.3305 55.2773Z" fill="black"/>
<path d="M44.5717 53.4457C44.5615 53.4436 44.546 53.4386 44.5326 53.4344L44.4902 53.4215L44.4045 53.3942L44.2322 53.3379L43.8872 53.2229C43.6568 53.1469 43.4261 53.0688 43.1907 53.0051C42.9557 52.9409 42.7169 52.888 42.4735 52.8518C42.3516 52.8326 42.2289 52.8211 42.1045 52.8107C41.98 52.8014 41.8544 52.7991 41.7255 52.7989H41.7237C41.7006 52.7989 41.6819 52.78 41.6819 52.7569C41.6819 52.7398 41.6923 52.725 41.7071 52.7185C41.7671 52.6922 41.8281 52.6645 41.8909 52.644C41.9223 52.6333 41.9534 52.6206 41.9853 52.6118L42.0814 52.5841C42.2102 52.5507 42.3421 52.5239 42.4749 52.5075C42.7407 52.4735 43.0104 52.4705 43.2771 52.4906C43.5441 52.5112 43.8094 52.5516 44.0666 52.6216C44.1955 52.656 44.3223 52.6971 44.4467 52.7458C44.5089 52.7705 44.5705 52.7961 44.6315 52.825C44.662 52.8393 44.6922 52.8541 44.7225 52.87C44.7375 52.8776 44.7527 52.8862 44.7677 52.8947C44.7834 52.9035 44.7971 52.9114 44.8158 52.9224C44.9529 53.0037 44.9982 53.1811 44.9169 53.3182C44.852 53.4277 44.7264 53.4785 44.6086 53.4536L44.5717 53.4457Z" fill="black"/>
<path d="M37.8951 58.3275C37.8951 58.3275 26.6994 60.7035 24.6204 59.6094C23.7605 59.1563 24.108 53.513 24.108 53.513L37.4813 53.0883C38.5482 55.7146 37.8951 58.3275 37.8951 58.3275Z" fill="white"/>
<g opacity="0.2">
<path d="M38.0675 56.5366C38.0675 56.5366 25.8124 58.7798 23.7333 57.6854C22.3044 56.9333 21.3149 55.2505 21.1022 53.0995C20.8271 56.0846 21.9298 58.5165 23.7333 59.4656C25.8124 60.5597 38.0675 58.3168 38.0675 58.3168C43.7663 60.907 45.289 58.9158 45.044 53.9835C44.8193 57.5778 43.0213 58.7881 38.0675 56.5366Z" fill="black"/>
</g>
<path d="M25.7714 60.2031C24.5872 60.2031 23.8115 60.089 23.3628 59.8527C23.155 59.7433 23.0751 59.486 23.1846 59.2782C23.294 59.0704 23.5513 58.9905 23.7591 59.0999C23.9882 59.2205 24.6699 59.4112 26.6597 59.3334C27.922 59.284 29.5338 59.135 31.4505 58.8907C34.1482 58.5466 36.7024 58.107 37.5356 57.9596C37.5832 57.6897 37.6478 57.2297 37.664 56.6563C37.6862 55.8684 37.6183 54.7087 37.1924 53.5231L24.1216 53.9381C23.8868 53.9457 23.6905 53.7612 23.6831 53.5263C23.6757 53.2915 23.86 53.0952 24.0949 53.0878L37.4682 52.6634C37.646 52.6576 37.8088 52.7634 37.8757 52.9285C38.9821 55.6518 38.336 58.3187 38.308 58.4307C38.2676 58.5926 38.1362 58.7159 37.972 58.7459C37.9413 58.7515 34.8587 59.3135 31.5618 59.7343C29.6197 59.9821 27.9822 60.1331 26.6946 60.1837C26.3625 60.1966 26.0552 60.2031 25.7714 60.2031Z" fill="black"/>
<path d="M29.2165 53.3509C29.1072 53.3544 28.9588 51.81 27.7552 51.5218C26.5516 51.2336 24.4361 51.0075 24.1077 51.5218C23.7794 52.036 23.2667 53.1313 24.8758 53.4888L29.2165 53.3509Z" fill="#FFC099"/>
<g opacity="0.6">
<path d="M29.205 53.3454L28.2799 53.3666C28.1448 52.0162 25.495 51.879 24.1318 51.8991C24.0425 51.7949 24.0138 51.6693 24.1085 51.5215C24.4371 51.0068 26.5522 51.2333 27.7557 51.5215C28.9157 51.8003 29.0953 53.2463 29.205 53.3454Z" fill="white"/>
</g>
<path d="M24.8761 53.8349C24.8509 53.8349 24.8258 53.8321 24.801 53.8266C24.1205 53.6753 23.6841 53.3779 23.5042 52.9424C23.318 52.4918 23.4229 51.951 23.8162 51.3351C24.042 50.9816 24.6142 50.8352 25.6171 50.8744C26.2986 50.9012 27.1489 51.0199 27.8361 51.1846C28.9404 51.449 29.2953 52.5489 29.447 53.0183C29.459 53.0557 29.4731 53.0994 29.484 53.1301C29.5311 53.1871 29.5604 53.2599 29.5629 53.3395C29.5689 53.5308 29.4188 53.6908 29.2276 53.6968C29.2274 53.6968 29.2274 53.6968 29.2272 53.6968L24.887 53.8346C24.8835 53.8349 24.8798 53.8349 24.8761 53.8349ZM24.3983 51.7108C24.1427 52.1122 24.0524 52.4556 24.1443 52.6779C24.2498 52.9331 24.6101 53.0698 24.91 53.141L28.7173 53.0202C28.5656 52.5907 28.291 52.0062 27.6749 51.8586C27.0519 51.7095 26.275 51.5986 25.6478 51.5695C24.7703 51.5284 24.45 51.6566 24.3983 51.7108ZM29.217 53.0045C29.2133 53.0045 29.2096 53.0045 29.2059 53.0047C29.2101 53.0045 29.2142 53.0045 29.2182 53.0045C29.2177 53.0045 29.2172 53.0045 29.217 53.0045Z" fill="black"/>
<path d="M23.7657 52.1583C23.8581 52.144 23.9504 52.1389 24.0426 52.1362C24.1349 52.1336 24.2271 52.135 24.3195 52.1392C24.504 52.1466 24.6882 52.1685 24.8727 52.1918C25.057 52.2156 25.2415 52.2438 25.4258 52.2775C25.518 52.2948 25.6101 52.3121 25.7022 52.3334C25.7482 52.3435 25.7944 52.3537 25.8403 52.3655C25.8863 52.3766 25.9325 52.3886 25.9784 52.402C25.9994 52.408 26.0114 52.4299 26.0054 52.4507C26.0015 52.4643 25.9907 52.4742 25.978 52.4777C25.9318 52.4904 25.8856 52.5017 25.8394 52.5121C25.7932 52.5232 25.747 52.5327 25.7008 52.5421C25.6085 52.562 25.5161 52.5781 25.4237 52.5941C25.239 52.6253 25.0543 52.6507 24.8695 52.6719C24.6848 52.6927 24.5003 52.7119 24.3155 52.7167C24.2232 52.7195 24.131 52.7197 24.0386 52.7158C23.9465 52.7116 23.8541 52.7054 23.762 52.6897C23.6154 52.6647 23.5168 52.5257 23.5417 52.3791C23.5616 52.2625 23.6546 52.1759 23.7657 52.1583Z" fill="black"/>
<path d="M36.0602 48.2177C36.0357 48.2177 36.0108 48.2152 35.9859 48.2096C35.799 48.1687 35.6806 47.9842 35.7214 47.7972L36.2639 45.3152C36.3048 45.1284 36.4893 45.0099 36.6763 45.0508C36.8631 45.0917 36.9816 45.2762 36.9407 45.4632L36.3983 47.9452C36.363 48.1073 36.2196 48.2177 36.0602 48.2177Z" fill="black"/>
<path d="M30.4423 49.2185C30.2605 49.2185 30.1079 49.0767 30.0968 48.8929L29.8876 45.4101C29.8761 45.2192 30.0215 45.055 30.2125 45.0436C30.4033 45.0323 30.5677 45.1776 30.579 45.3686L30.7882 48.8514C30.7998 49.0423 30.6543 49.2065 30.4633 49.2178C30.4561 49.2183 30.4492 49.2185 30.4423 49.2185Z" fill="black"/>
<path d="M32.1567 49.3843C32.1117 49.1432 31.8799 48.9841 31.6386 49.0291L31.5259 49.0501L31.3081 47.8833C31.206 47.3367 30.6804 46.9764 30.1338 47.0783C29.5872 47.1803 29.227 47.7059 29.3288 48.2525L29.5466 49.4194L29.5037 49.4275C29.2626 49.4725 29.1035 49.7043 29.1485 49.9456C29.1935 50.1867 29.6187 50.8278 29.86 50.7827L31.8803 50.3574C32.1212 50.3124 32.2015 49.6254 32.1567 49.3843Z" fill="#FF3489"/>
<path d="M29.7642 51.1888C29.3421 51.1888 28.7944 50.9442 28.6692 50.3189C28.6138 50.042 28.6729 49.7571 28.8357 49.5162C28.9227 49.3873 29.0334 49.28 29.1537 49.2033L28.9881 48.3158C28.9218 47.9605 28.9978 47.6007 29.2022 47.3026C29.4065 47.0044 29.7148 46.8038 30.07 46.7375C30.8034 46.6008 31.5114 47.0859 31.6484 47.8194L31.8077 48.674C32.2176 48.6983 32.6381 48.9798 32.751 49.5448C32.8113 49.8462 32.7598 50.1291 32.6018 50.3625C32.4201 50.6313 32.1425 50.7666 31.9432 50.8038L29.9416 51.1728C29.8866 51.1835 29.8266 51.1888 29.7642 51.1888ZM30.3185 47.4074C30.2785 47.4074 30.2379 47.4111 30.197 47.4187C29.8391 47.4854 29.6021 47.8309 29.6691 48.1888L29.8869 49.3557C29.9037 49.446 29.8841 49.5393 29.8321 49.615C29.7802 49.6908 29.7003 49.7427 29.61 49.7596L29.567 49.7677C29.5105 49.7806 29.3012 49.9457 29.3488 50.1829C29.4195 50.5362 29.8118 50.4925 29.8157 50.4919L31.8174 50.1228C31.8659 50.1138 31.967 50.0653 32.0282 49.9746C32.0816 49.8956 32.0959 49.7995 32.0721 49.6806C32.0024 49.3317 31.7516 49.3601 31.7022 49.3693L31.5895 49.3903C31.4015 49.4254 31.2204 49.3014 31.1853 49.1135L30.9676 47.9466C30.9082 47.6295 30.6302 47.4074 30.3185 47.4074Z" fill="black"/>
<path d="M30.4348 48.1682C30.5179 48.0852 30.5179 47.9505 30.4348 47.8674C30.3517 47.7844 30.2171 47.7844 30.134 47.8674C30.051 47.9505 30.051 48.0852 30.134 48.1682C30.2171 48.2513 30.3517 48.2513 30.4348 48.1682Z" fill="black"/>
<path d="M36.3635 45.2509C36.0169 46.2376 35.2034 47.2757 33.3096 47.2757C31.6167 47.2757 30.7639 46.4824 30.3353 45.6391C29.8482 44.6842 29.9078 43.6656 29.9078 43.6656L36.6069 43.5028C36.6069 43.5028 36.6783 44.3556 36.3635 45.2509Z" fill="#FFC099"/>
<path d="M33.3093 47.6224C32.1459 47.6224 31.225 47.2714 30.5717 46.5791C29.4723 45.4138 29.5572 43.7168 29.5614 43.645C29.5718 43.4651 29.7187 43.323 29.8988 43.3187L36.5986 43.1561C36.7822 43.1522 36.9369 43.2909 36.9521 43.4736C36.9586 43.5505 37.0958 45.369 35.9776 46.5839C35.3438 47.2732 34.4459 47.6224 33.3093 47.6224ZM30.2597 44.0031C30.2914 44.4894 30.4387 45.4316 31.079 46.1073C31.5961 46.653 32.3466 46.9296 33.3093 46.9296C34.2443 46.9296 34.9706 46.6555 35.4678 46.1152C36.1291 45.3965 36.2497 44.3742 36.2654 43.8574L30.2597 44.0031Z" fill="black"/>
<g opacity="0.2">
<path d="M36.3635 45.2509C34.0975 46.0324 31.855 45.9007 30.3353 45.6391C29.8482 44.6842 29.9078 43.6656 29.9078 43.6656L36.6069 43.5028C36.6069 43.5028 36.6783 44.3556 36.3635 45.2509Z" fill="#1A1A5A"/>
</g>
<path d="M49.0283 34.2481C48.3057 36.1747 46.1119 37.6196 46.1119 37.6196C46.1119 37.6196 44.6188 38.3613 43.9422 38.3685C43.9422 38.3685 41.541 44.6035 32.934 44.6035C24.3267 44.6035 21.6441 38.7285 21.6441 38.7285C21.6441 38.7285 20.7772 38.8176 20.0089 38.5828C20.0089 38.5828 17.6006 38.2216 16.276 35.4522C14.9514 32.6827 18.2026 30.5152 18.2026 30.5152C18.2026 30.5152 18.1881 30.3912 18.1712 30.1624C18.0701 28.7403 17.8629 23.2808 20.2495 18.7145C23.019 13.4164 29.4011 15.4633 29.4011 15.4633C33.2543 11.0081 38.7561 10.9538 42.2853 13.7776C48.7071 18.9156 46.8611 30.0335 46.8611 30.0335C46.8611 30.0335 49.7508 32.3215 49.0283 34.2481Z" fill="#FFC099"/>
<path d="M32.934 44.6614C30.9637 44.6614 29.1417 44.3513 27.5183 43.7398C26.2187 43.2502 25.043 42.5674 24.024 41.7104C22.4405 40.3789 21.7276 39.0285 21.6092 38.7897C21.4272 38.8043 20.6799 38.8474 19.9957 38.6394C19.9352 38.6297 19.3531 38.5285 18.6104 38.1064C17.9028 37.7041 16.9145 36.9213 16.2238 35.4771C15.9162 34.834 15.828 34.1691 15.9615 33.5011C16.0679 32.9686 16.315 32.4335 16.6958 31.9112C17.2729 31.1193 17.9894 30.5942 18.1414 30.4873C18.1361 30.4355 18.1255 30.3272 18.1137 30.1665C18.0038 28.6198 17.8289 23.2212 20.1985 18.6877C20.8354 17.4691 21.7175 16.5383 22.8197 15.921C23.7009 15.4275 24.7237 15.1326 25.8594 15.0446C27.6287 14.9075 29.1309 15.3229 29.3819 15.3973C30.3111 14.3292 31.3655 13.4799 32.5164 12.8723C33.6085 12.296 34.7668 11.9463 35.9591 11.8334C37.1047 11.7251 38.2427 11.8376 39.3417 12.168C40.4302 12.4952 41.4329 13.0217 42.3213 13.7325C43.7936 14.9107 44.9515 16.5022 45.7627 18.4633C46.4107 20.0298 46.84 21.8345 47.0388 23.8267C47.357 27.0172 46.9735 29.6834 46.9234 30.0097C47.0598 30.1215 47.7 30.6609 48.2613 31.3828C48.6322 31.8597 48.8973 32.3222 49.0493 32.7577C49.2412 33.3076 49.2522 33.8158 49.0827 34.2684C48.7057 35.2741 47.9265 36.1449 47.339 36.6985C46.704 37.297 46.1495 37.6644 46.144 37.6679L46.138 37.6713C46.0777 37.7014 44.6783 38.3927 43.9816 38.4253C43.8793 38.6687 43.2323 40.1085 41.7054 41.5285C40.727 42.4383 39.5837 43.1632 38.3073 43.683C36.7123 44.3321 34.9047 44.6614 32.934 44.6614ZM21.6792 38.6671L21.6965 38.7047C21.7032 38.7193 22.3844 40.1824 24.1032 41.6259C25.6889 42.9581 28.5083 44.546 32.934 44.546C37.3582 44.546 40.1007 42.8611 41.622 41.4479C43.2713 39.9159 43.8823 38.3634 43.8883 38.3479L43.9024 38.3115L43.9417 38.311C44.5827 38.3041 46.0054 37.6081 46.0833 37.5697C46.174 37.509 48.2789 36.083 48.9744 34.228C49.3382 33.2584 48.7384 32.1853 48.1715 31.4558C47.551 30.6575 46.8324 30.0848 46.8252 30.0792L46.7984 30.058L46.804 30.0245C46.8086 29.9968 47.2605 27.2111 46.9234 23.8357C46.6128 20.7259 45.5498 16.4641 42.249 13.8231C38.9147 11.1552 33.4457 10.8753 29.4445 15.5014L29.4195 15.5303L29.3833 15.5187C29.3673 15.5137 27.7733 15.0116 25.8644 15.1603C24.1087 15.2973 21.7182 16.0295 20.3005 18.7418C17.9451 23.2482 18.1192 28.6198 18.2287 30.1587C18.2453 30.3831 18.2596 30.5076 18.2599 30.509L18.264 30.5441L18.2347 30.5637C18.2266 30.569 17.4209 31.1117 16.7875 31.982C15.9437 33.1413 15.7892 34.3005 16.3282 35.4277C17.0048 36.8425 17.9714 37.6094 18.663 38.0036C19.4133 38.4313 20.0116 38.5253 20.0174 38.5262L20.0257 38.5281C20.7735 38.7567 21.6295 38.6724 21.6383 38.6715L21.6792 38.6671Z" fill="black"/>
<g opacity="0.2">
<path d="M20.8265 34.6222C20.8265 34.6222 21.3955 31.7107 25.209 30.5152C29.0225 29.3197 30.5399 24.1738 30.5399 24.1738C30.5399 24.1738 35.4475 29.9388 43.3433 30.9452L45.1752 34.201L44.2365 30.0635C44.2365 30.0635 32.5314 25.7972 30.3124 20.0885C30.3124 20.0885 28.2055 27.1816 25.363 27.9609C20.4286 29.3137 20.8265 34.6222 20.8265 34.6222Z" fill="black"/>
</g>
<g opacity="0.2">
<path d="M46.1119 35.3011C46.1119 35.3011 44.6188 36.0428 43.9422 36.05C43.9422 36.05 41.541 42.285 32.934 42.285C24.3267 42.285 21.6441 36.41 21.6441 36.41C21.6441 36.41 20.7772 36.4992 20.0089 36.2643C20.0089 36.2643 17.6006 35.9031 16.276 33.1337C16.2488 33.0764 16.2261 33.02 16.2026 32.9632C15.9045 33.7029 15.8266 34.5726 16.276 35.5117C17.6006 38.2812 20.0089 38.6426 20.0089 38.6426C20.7772 38.8774 21.6441 38.7883 21.6441 38.7883C21.6441 38.7883 24.327 44.6633 32.934 44.6633C41.5413 44.6633 43.9422 38.4283 43.9422 38.4283C44.6188 38.4211 46.1119 37.6794 46.1119 37.6794C46.1119 37.6794 48.306 36.2345 49.0283 34.3079C49.2624 33.6835 49.1163 33.0217 48.8128 32.4116C47.9469 34.0918 46.1119 35.3011 46.1119 35.3011Z" fill="black"/>
</g>
<path d="M46.8611 30.0335C46.6299 32.8415 44.9873 35.4496 44.9356 35.5304C45.3342 33.923 44.1313 29.6723 44.1313 29.6723C33.5049 26.998 30.8906 21.7659 30.3125 20.0885C30.2271 19.8416 30.186 19.6719 30.1705 19.5985C30.1825 19.6828 30.1825 19.7876 30.1705 19.9105C30.008 21.6602 27.5334 27.0257 23.8222 29.0306C19.8076 31.1981 20.9322 36.4962 20.9322 36.4962C19.4873 35.6124 18.1724 30.1624 18.1724 30.1624H18.1712C18.123 29.4869 18.0509 27.8986 18.2447 25.9286C18.459 23.7528 18.9972 21.1108 20.2495 18.7145C23.019 13.4164 29.4011 15.4633 29.4011 15.4633C33.2543 11.0081 38.7561 10.9538 42.2853 13.7776C45.2354 16.1376 46.4408 19.7622 46.8814 22.9892C47.4005 26.786 46.8611 30.0335 46.8611 30.0335Z" fill="#5D5D5D"/>
<g opacity="0.2">
<path d="M30.1705 19.9105C30.008 21.6602 27.5334 27.0258 23.8222 29.0307C19.8076 31.1981 20.9322 36.4962 20.9322 36.4962C19.4873 35.6125 18.1724 30.1624 18.1724 30.1624H18.1712C18.123 29.487 18.0509 27.8987 18.2447 25.9286C22.2339 31.0836 30.1705 19.9105 30.1705 19.9105Z" fill="black"/>
</g>
<g opacity="0.2">
<path d="M46.8613 30.0335C46.6301 32.8415 44.9875 35.4496 44.9358 35.5304C45.3344 33.923 44.1315 29.6723 44.1315 29.6723C33.505 26.998 30.8907 21.7659 30.3127 20.0885C37.4834 29.0412 44.9732 24.48 46.8816 22.9894C47.4007 26.786 46.8613 30.0335 46.8613 30.0335Z" fill="black"/>
</g>
<g opacity="0.6">
<path d="M47.0254 27.2507C46.8839 23.588 45.9325 18.6275 42.224 15.661C41.7712 15.2994 41.2867 14.9846 40.7766 14.7214C39.4299 15.0451 38.5935 15.1648 37.5157 15.0451C36.5588 14.9389 35.9207 14.6198 34.9421 13.9199C32.9621 14.327 30.9986 15.4306 29.3403 17.3472C29.3403 17.3472 22.958 15.2994 20.1883 20.598C18.6226 23.5949 18.1732 26.9766 18.0783 29.3498C17.9941 27.3641 18.0539 22.5684 20.1883 18.4834C22.9582 13.186 29.3403 15.2327 29.3403 15.2327C33.1937 10.7777 38.6948 10.7227 42.224 13.5476C46.7153 17.1403 47.1624 23.6559 47.0254 27.2507Z" fill="white"/>
</g>
<path d="M20.9318 36.9003C20.8591 36.9003 20.7861 36.8807 20.7212 36.8409C20.0303 36.4184 19.3458 35.2044 18.6284 33.13C18.1543 31.7592 17.8395 30.5028 17.7869 30.2878C17.7767 30.2571 17.7702 30.2247 17.7679 30.1912C17.6564 28.6216 17.4795 23.1418 19.8913 18.5277C20.56 17.2484 21.4884 16.27 22.6504 15.6192C23.5757 15.101 24.6465 14.7916 25.8325 14.6997C27.3913 14.5789 28.7235 14.8641 29.2661 15.0059C30.1878 13.9824 31.2258 13.1624 32.3547 12.5664C33.487 11.9685 34.6887 11.6062 35.9265 11.4889C37.1166 11.3762 38.2992 11.4933 39.4414 11.8367C40.5727 12.1768 41.6144 12.7239 42.5376 13.4626C44.0562 14.6777 45.2489 16.3157 46.0828 18.3312C46.7437 19.9292 47.1813 21.7667 47.3833 23.7926C47.7159 27.1278 47.3043 29.8227 47.2623 30.0832C47.0162 33.0071 45.293 35.7219 45.2757 35.7489C45.169 35.9154 44.9572 35.9801 44.7757 35.9018C44.594 35.8235 44.4958 35.6254 44.5434 35.4335C44.8311 34.2733 44.1566 31.3119 43.8042 30.0063C34.6453 27.6451 31.4098 23.3808 30.3062 21.1196C30.0183 22.0202 29.5227 23.1233 28.9022 24.1981C28.1039 25.5808 26.4073 28.0938 24.0144 29.3865C22.4753 30.2173 21.5539 31.638 21.2754 33.6087C21.0621 35.1192 21.3251 36.4003 21.3279 36.413C21.3611 36.571 21.2972 36.7336 21.1655 36.8266C21.0953 36.8754 21.0138 36.9003 20.9318 36.9003ZM18.5713 30.0929C18.6187 30.2852 18.9341 31.5415 19.3941 32.8714C19.7758 33.974 20.1102 34.7137 20.3892 35.2097C20.3718 34.7248 20.3852 34.1435 20.4714 33.5207C20.6067 32.543 20.8942 31.6648 21.3263 30.9106C21.8719 29.9578 22.6471 29.2057 23.6302 28.675C25.8478 27.4772 27.4464 25.1026 28.2018 23.7937C29.3283 21.8424 29.8363 20.1356 29.77 19.6537C29.7405 19.4387 29.8859 19.2385 30.0998 19.2006C30.3136 19.1627 30.5191 19.3004 30.5653 19.5126C30.5933 19.6412 30.711 20.1142 31.0516 20.8021C31.4955 21.6985 32.1236 22.5797 32.9187 23.4208C35.3981 26.0443 39.204 28.0157 44.2298 29.2802C44.37 29.3156 44.4806 29.423 44.5201 29.5622C44.5326 29.6063 44.8281 30.6549 45.0792 31.9197C45.223 32.6446 45.3214 33.2842 45.3743 33.8362C45.8304 32.8386 46.3393 31.444 46.4582 30.0003C46.4592 29.9892 46.4606 29.9781 46.4624 29.9672C46.4682 29.9328 46.9118 27.1809 46.5772 23.8531C46.2717 20.815 45.2353 16.6556 42.0328 14.093C38.8278 11.5288 33.5646 11.2667 29.7067 15.7277C29.6007 15.8501 29.4319 15.8977 29.2777 15.8483C29.2627 15.8434 27.7143 15.3587 25.8704 15.5072C23.4542 15.7016 21.6837 16.8438 20.6078 18.902C18.3148 23.2887 18.4635 28.5249 18.5713 30.0929Z" fill="black"/>
<path d="M30.1705 19.945C30.007 19.945 29.8613 19.8286 29.8303 19.6619L29.0609 15.5269C29.0258 15.339 29.15 15.1579 29.338 15.1231C29.5262 15.0882 29.707 15.2122 29.7419 15.4002L30.5113 19.5351C30.5464 19.7231 30.4222 19.9041 30.2342 19.939C30.2127 19.9431 30.1915 19.945 30.1705 19.945Z" fill="black"/>
<path d="M32.7235 45.029C30.1909 45.029 27.9733 44.5891 26.1324 43.7218C24.645 43.0209 23.4008 42.0423 22.4337 40.813C20.7842 38.7162 20.5202 36.6342 20.5098 36.5465C20.4821 36.3132 20.6486 36.1017 20.8819 36.0738C21.1149 36.0461 21.3262 36.2123 21.3543 36.4451C21.3566 36.4645 21.6107 38.4098 23.1288 40.3207C25.1625 42.8805 28.3904 44.1783 32.7232 44.1783C37.0561 44.1783 40.3544 42.7193 42.5264 39.8418C44.1554 37.6838 44.5117 35.4875 44.5152 35.4655C44.5512 35.2337 44.7682 35.0743 45.0003 35.1101C45.2322 35.1459 45.3915 35.3625 45.356 35.5944C45.3412 35.6914 44.9733 37.9948 43.2296 40.3219C42.2038 41.6908 40.9132 42.7817 39.3935 43.5638C37.5054 44.536 35.2613 45.029 32.7235 45.029Z" fill="black"/>
<path d="M21.6448 39.1333C21.6328 39.1333 21.6205 39.1328 21.6083 39.1316L19.9729 38.9855C19.9419 38.9827 19.9115 38.9765 19.8819 38.9665C19.8399 38.9527 18.8434 38.6188 17.8149 37.8835C16.4162 36.8836 15.6352 35.6181 15.5567 34.2236C15.4576 32.4637 16.1469 31.4432 16.7427 30.8971C17.3944 30.2997 18.0786 30.1291 18.1072 30.1221C18.3243 30.0697 18.5425 30.2029 18.5952 30.4198C18.6476 30.6366 18.5144 30.8551 18.2975 30.9077C18.2142 30.9287 16.2111 31.4684 16.3638 34.1781C16.4287 35.3302 17.0695 36.3515 18.2684 37.2138C19.0871 37.8027 19.9048 38.1158 20.095 38.1846L21.6803 38.3264C21.9027 38.3463 22.0667 38.5426 22.0468 38.7649C22.0281 38.9751 21.8517 39.1333 21.6448 39.1333Z" fill="black"/>
<path d="M43.9422 38.7729C43.7443 38.7729 43.5716 38.6274 43.5427 38.426C43.5111 38.205 43.6646 38.0004 43.8854 37.9688C44.9536 37.8159 45.821 37.3217 45.8984 37.2767C46.0443 37.18 48.7364 35.369 48.7404 33.4949C48.7443 31.5987 46.6819 30.3968 46.6609 30.385C46.4674 30.2744 46.3997 30.0275 46.5101 29.834C46.6205 29.6403 46.8666 29.5724 47.0604 29.6825C47.1622 29.7403 49.5532 31.1249 49.5484 33.4967C49.5435 35.8519 46.4627 37.8744 46.3316 37.9593C46.3279 37.9616 46.3242 37.9639 46.3205 37.9663C46.2787 37.9914 45.2818 38.5858 43.9997 38.7694C43.9805 38.7715 43.9611 38.7729 43.9422 38.7729Z" fill="black"/>
<path d="M34.586 38.3265C34.3092 38.7382 33.8178 39.0802 32.9557 39.0802C32.1634 39.0802 31.6769 38.8045 31.3783 38.4528C30.858 37.8411 30.9086 37.0005 30.9086 37.0005L34.9412 36.9077C34.9412 36.9079 35.01 37.699 34.586 38.3265Z" fill="black"/>
<path d="M34.5862 38.3264C34.3093 38.7382 33.8179 39.0802 32.9559 39.0802C32.1636 39.0802 31.677 38.8044 31.3784 38.4527C31.777 38.1733 32.3947 37.9939 33.087 37.9939C33.6687 37.9941 34.1962 38.1204 34.5862 38.3264Z" fill="#FF4D8B"/>
<path d="M32.9558 39.4266C32.1563 39.4266 31.5367 39.1744 31.1144 38.677C30.511 37.9674 30.5606 37.0197 30.5629 36.9797C30.5738 36.7998 30.7206 36.6583 30.9008 36.6541L34.9334 36.5613C35.1158 36.5574 35.2705 36.6955 35.2865 36.8777C35.2897 36.9148 35.3601 37.7991 34.8733 38.5198C34.5951 38.9338 34.0365 39.4266 32.9558 39.4266ZM31.2742 37.3388C31.3088 37.5901 31.4009 37.9448 31.6423 38.2286C31.9272 38.5639 32.369 38.7338 32.9558 38.7338C33.5788 38.7338 34.0307 38.5318 34.2988 38.1332C34.299 38.133 34.299 38.1327 34.2993 38.1325C34.4933 37.8452 34.5632 37.506 34.5872 37.2626L31.2742 37.3388Z" fill="black"/>
<path d="M37.3271 29.4788C37.3273 29.4624 37.3264 29.4509 37.3264 29.4373L37.3266 29.3989C37.3276 29.3735 37.3287 29.3483 37.331 29.3234C37.335 29.2733 37.3426 29.2241 37.3514 29.1747C37.3703 29.0765 37.3973 28.9791 37.434 28.8842C37.5063 28.6939 37.6144 28.5101 37.7622 28.3482C37.8358 28.2674 37.9185 28.1914 38.0116 28.1263C38.1037 28.0605 38.2039 28.0023 38.3109 27.9582L38.3508 27.9413L38.3914 27.9265C38.4187 27.9168 38.4462 27.9076 38.4737 27.8988C38.5291 27.8841 38.585 27.8677 38.6413 27.8591C38.6695 27.8543 38.6976 27.8485 38.7258 27.845L38.8103 27.8365L38.8526 27.8328L38.8946 27.8316L38.9785 27.83C39.0921 27.833 39.2071 27.8425 39.32 27.8693C39.3768 27.8797 39.432 27.8988 39.4874 27.9152C39.5417 27.9353 39.5962 27.9549 39.6477 27.9803C39.7003 28.0034 39.7495 28.0325 39.7989 28.0605C39.8465 28.091 39.8941 28.1212 39.9379 28.1556C40.0264 28.2231 40.1072 28.2972 40.1776 28.3775C40.2485 28.4574 40.3111 28.5417 40.3652 28.6288C40.3783 28.6507 40.3915 28.6727 40.4042 28.6948L40.44 28.7618C40.4633 28.8066 40.4845 28.8521 40.5035 28.898C40.5231 28.9438 40.5407 28.9902 40.5559 29.0371C40.5721 29.0837 40.5852 29.131 40.5975 29.1784C40.6092 29.226 40.6194 29.2738 40.6273 29.3223C40.631 29.3465 40.6349 29.3707 40.6374 29.3955C40.6404 29.4209 40.6418 29.4435 40.6441 29.473C40.6503 29.5523 40.5915 29.6215 40.5123 29.628C40.4672 29.6317 40.4254 29.6141 40.3966 29.5839L40.3744 29.5603C40.3628 29.5481 40.3483 29.5294 40.3354 29.5137L40.2952 29.4645C40.2686 29.4317 40.2407 29.3998 40.2139 29.3682C40.1864 29.3368 40.1589 29.3061 40.1315 29.2758C40.1174 29.2608 40.104 29.2458 40.0894 29.2315C40.0756 29.2169 40.0622 29.2019 40.0479 29.1881C39.9361 29.0738 39.819 28.9745 39.7015 28.895C39.6426 28.8551 39.5835 28.8209 39.5239 28.7925C39.4948 28.777 39.4643 28.766 39.4352 28.753C39.4052 28.7424 39.3759 28.7309 39.3461 28.7228C39.317 28.7121 39.2863 28.7078 39.2569 28.6992L39.2119 28.6914C39.1971 28.6881 39.1819 28.6863 39.1667 28.6847C39.1066 28.6754 39.0445 28.6757 38.9819 28.6757C38.9173 28.6796 38.8535 28.6828 38.793 28.6951C38.7778 28.6974 38.7623 28.6994 38.7475 28.7038C38.7325 28.7073 38.7175 28.7103 38.7025 28.7133C38.6877 28.7172 38.6734 28.7221 38.6586 28.7258L38.6365 28.7315L38.615 28.7392C38.5566 28.7569 38.4997 28.7817 38.4425 28.8091C38.3852 28.8368 38.3284 28.8699 38.2718 28.908C38.1577 28.983 38.0453 29.0793 37.9333 29.1897C37.8779 29.2451 37.8218 29.3038 37.7666 29.3659C37.7388 29.3968 37.7109 29.4285 37.6834 29.4606L37.6416 29.5091L37.6206 29.5333C37.6139 29.5407 37.6061 29.5502 37.6003 29.5548L37.5569 29.5901C37.4964 29.6391 37.4077 29.6301 37.3587 29.5696C37.337 29.543 37.3266 29.5107 37.3271 29.4788Z" fill="black"/>
<path d="M25.0725 29.4788C25.0727 29.4624 25.0718 29.4509 25.0718 29.4373L25.0722 29.3989C25.0732 29.3735 25.0743 29.3483 25.0766 29.3234C25.0806 29.2733 25.0882 29.2241 25.0969 29.1747C25.1159 29.0765 25.1429 28.9791 25.1796 28.8842C25.2517 28.6939 25.36 28.5101 25.5078 28.3482C25.5814 28.2674 25.6641 28.1914 25.7572 28.1263C25.8493 28.0605 25.9495 28.0023 26.0564 27.9582L26.0964 27.9413L26.137 27.9265C26.1643 27.9168 26.1918 27.9076 26.2192 27.8988C26.2747 27.8841 26.3305 27.8677 26.3869 27.8591C26.4151 27.8543 26.4432 27.8485 26.4714 27.845L26.5559 27.8365L26.5982 27.8328L26.6402 27.8316L26.7243 27.83C26.8379 27.833 26.9529 27.8425 27.0658 27.8693C27.1226 27.8797 27.1778 27.8988 27.2332 27.9152C27.2875 27.9353 27.342 27.9549 27.3935 27.9803C27.4461 28.0034 27.4953 28.0325 27.5447 28.0605C27.5923 28.091 27.6399 28.1212 27.6838 28.1556C27.7722 28.2231 27.853 28.2972 27.9235 28.3775C27.9944 28.4574 28.0569 28.5417 28.111 28.6288C28.1241 28.6507 28.1373 28.6727 28.15 28.6948L28.1858 28.7618C28.2091 28.8066 28.2304 28.8521 28.2493 28.898C28.2689 28.9438 28.2865 28.9902 28.3017 29.0371C28.3179 29.0837 28.331 29.131 28.3433 29.1784C28.3551 29.226 28.3652 29.2738 28.3731 29.3223C28.3768 29.3465 28.3807 29.3707 28.3832 29.3955C28.3862 29.4209 28.3876 29.4435 28.3899 29.473C28.3964 29.5523 28.3373 29.6215 28.2581 29.628C28.213 29.6317 28.1712 29.6141 28.1424 29.5839L28.1202 29.5603C28.1087 29.5481 28.0941 29.5294 28.0812 29.5137L28.041 29.4645C28.0145 29.4317 27.9865 29.3998 27.9597 29.3682C27.9322 29.3368 27.9048 29.3061 27.8773 29.2758C27.8632 29.2608 27.8498 29.2458 27.8353 29.2315C27.8214 29.2169 27.808 29.2019 27.7937 29.1881C27.6819 29.0738 27.5648 28.9745 27.4473 28.895C27.3884 28.8551 27.3293 28.8209 27.2697 28.7925C27.2406 28.777 27.2101 28.766 27.181 28.753C27.151 28.7424 27.1217 28.7309 27.0919 28.7228C27.0628 28.7121 27.0321 28.7078 27.0028 28.6992L26.9577 28.6914C26.943 28.6881 26.9277 28.6863 26.9125 28.6847C26.8524 28.6754 26.7903 28.6757 26.7277 28.6757C26.6631 28.6796 26.5991 28.6828 26.5388 28.6951C26.5236 28.6974 26.5081 28.6994 26.4934 28.7038C26.4783 28.7073 26.4636 28.7103 26.4483 28.7133C26.4335 28.7172 26.4192 28.7221 26.4044 28.7258L26.3823 28.7315L26.3608 28.7392C26.3024 28.7569 26.2456 28.7817 26.1883 28.8091C26.131 28.8368 26.0742 28.8699 26.0176 28.908C25.9036 28.983 25.7911 29.0793 25.6791 29.1897C25.6237 29.2451 25.5676 29.3038 25.5124 29.3659C25.4847 29.3968 25.4567 29.4285 25.4292 29.4606L25.3875 29.5091L25.3664 29.5333C25.3595 29.5407 25.3519 29.5502 25.3461 29.5548L25.3027 29.5901C25.2422 29.6391 25.1535 29.6301 25.1046 29.5696C25.0824 29.543 25.072 29.5107 25.0725 29.4788Z" fill="black"/>
<path d="M26.8485 33.9895C27.6251 33.9895 28.2546 33.0964 28.2546 31.9946C28.2546 30.8928 27.6251 29.9996 26.8485 29.9996C26.0719 29.9996 25.4424 30.8928 25.4424 31.9946C25.4424 33.0964 26.0719 33.9895 26.8485 33.9895Z" fill="black"/>
<path d="M27.2076 32.2021C27.4423 32.2021 27.6325 31.9021 27.6325 31.5322C27.6325 31.1622 27.4423 30.8622 27.2076 30.8622C26.973 30.8622 26.7827 31.1622 26.7827 31.5322C26.7827 31.9021 26.973 32.2021 27.2076 32.2021Z" fill="white"/>
<path d="M38.753 33.9895C39.5296 33.9895 40.1591 33.0964 40.1591 31.9946C40.1591 30.8928 39.5296 29.9996 38.753 29.9996C37.9765 29.9996 37.3469 30.8928 37.3469 31.9946C37.3469 33.0964 37.9765 33.9895 38.753 33.9895Z" fill="black"/>
<path d="M38.3939 32.2021C38.6286 32.2021 38.8188 31.9021 38.8188 31.5322C38.8188 31.1622 38.6286 30.8622 38.3939 30.8622C38.1592 30.8622 37.969 31.1622 37.969 31.5322C37.969 31.9021 38.1592 32.2021 38.3939 32.2021Z" fill="white"/>
<circle cx="32.6474" cy="28.8396" r="0.612199" fill="black"/>
</g>
<defs>
<clipPath id="clip0_3_207">
<rect x="6.375" y="10" width="55" height="55" rx="27.5" fill="white"/>
</clipPath>
</defs>
</svg>
