<svg width="20" height="20" viewBox="0 0 20 20" fill="none" xmlns="http://www.w3.org/2000/svg">
<path d="M8.77297 5.3894C8.52781 5.14642 8.13209 5.14818 7.8891 5.39335C7.64611 5.63851 7.64788 6.03424 7.89304 6.27722L9.36218 7.73331C9.95843 8.32426 10.3674 8.73096 10.6442 9.07557C10.913 9.41031 11.0052 9.62533 11.0298 9.81789C11.0452 9.93881 11.0452 10.0612 11.0298 10.1821C11.0052 10.3746 10.913 10.5896 10.6442 10.9244C10.3674 11.269 9.95843 11.6757 9.36218 12.2666L7.89304 13.7227C7.64788 13.9657 7.64611 14.3614 7.8891 14.6066C8.13209 14.8518 8.52781 14.8535 8.77297 14.6106L10.2686 13.1282C10.8319 12.5699 11.2923 12.1137 11.6188 11.7071C11.9583 11.2843 12.2041 10.8552 12.2698 10.3401C12.2985 10.1143 12.2985 9.8857 12.2698 9.65984C12.2041 9.14475 11.9583 8.71563 11.6188 8.29286C11.2923 7.8863 10.8319 7.43001 10.2686 6.87172L8.77297 5.3894Z" fill="black"/>
</svg>
