<svg width="20" height="20" viewBox="0 0 20 20" fill="none" xmlns="http://www.w3.org/2000/svg">
<path d="M0 7.5H20V11.875H0V7.5Z" fill="#E6E7E8"/>
<path d="M16.875 2.8125H3.125C1.05406 2.8125 0 4.35156 0 6.25V7.5H20V6.25C20 4.35156 18.9459 2.8125 16.875 2.8125Z" fill="#FF9933"/>
<path d="M0 13.125C0 15.0234 1.05406 16.5625 3.125 16.5625H16.875C18.9459 16.5625 20 15.0234 20 13.125V11.875H0V13.125Z" fill="#128807"/>
<path fill-rule="evenodd" clip-rule="evenodd" d="M10.0972 7.68219C10.4965 7.68219 10.8868 7.80063 11.2188 8.02252C11.5507 8.24442 11.8094 8.55979 11.962 8.92874C12.1147 9.29768 12.1545 9.70362 12.0763 10.0952C11.9982 10.4867 11.8057 10.8463 11.5232 11.1285C11.2406 11.4106 10.8807 11.6025 10.489 11.68C10.0973 11.7576 9.69147 11.7171 9.32276 11.5639C8.95405 11.4107 8.63908 11.1515 8.4177 10.8193C8.19632 10.487 8.07849 10.0965 8.0791 9.69719C8.08001 9.16252 8.29303 8.65005 8.67139 8.27227C9.04976 7.89449 9.56256 7.68227 10.0972 7.68219ZM8.75192 8.55563C8.7866 8.595 8.79285 8.63719 8.76973 8.6725C8.75993 8.68876 8.7448 8.70113 8.72692 8.7075C8.71319 8.71261 8.69842 8.71431 8.68389 8.71246C8.66936 8.71061 8.65549 8.70526 8.64348 8.69688C8.58916 8.77466 8.54139 8.85682 8.50067 8.9425C8.54785 8.97344 8.56348 9.01219 8.54785 9.055C8.53949 9.07679 8.52297 9.09447 8.50179 9.10427C8.48061 9.11407 8.45644 9.11523 8.43442 9.1075C8.41192 9.1525 8.36223 9.3425 8.3616 9.3825C8.3823 9.38646 8.4009 9.39765 8.4141 9.41406C8.42805 9.43036 8.43521 9.45139 8.4341 9.47281C8.42817 9.53156 8.39192 9.55656 8.3366 9.55875C8.32785 9.61531 8.32879 9.80469 8.33754 9.84188C8.39629 9.84813 8.42723 9.87375 8.43223 9.91844C8.4391 9.96656 8.41598 9.99781 8.35973 10.0197C8.3766 10.1125 8.40067 10.2038 8.43223 10.2931C8.45426 10.2865 8.47787 10.2872 8.49942 10.2953C8.52035 10.3044 8.53692 10.32 8.54567 10.3416C8.55348 10.3584 8.55504 10.3759 8.55098 10.3944C8.54806 10.4081 8.542 10.4209 8.53327 10.4319C8.52454 10.4428 8.51337 10.4516 8.50067 10.4575C8.54254 10.5444 8.58879 10.6263 8.64348 10.7031C8.69223 10.6791 8.73473 10.6847 8.76348 10.7191C8.77613 10.7332 8.78333 10.7514 8.78379 10.7703C8.78476 10.7843 8.78231 10.7984 8.77665 10.8112C8.77099 10.8241 8.76228 10.8353 8.75129 10.8441C8.81379 10.9172 8.88035 10.9841 8.95285 11.0456C8.99379 11.0097 9.03629 11.0041 9.07285 11.0297C9.08942 11.0413 9.10098 11.0566 9.10629 11.0753C9.1101 11.0886 9.1109 11.1025 9.10863 11.1162C9.10636 11.1298 9.10108 11.1427 9.09317 11.1541C9.17223 11.2084 9.25379 11.2553 9.3391 11.2959C9.37223 11.2494 9.41004 11.2338 9.45098 11.2494C9.46881 11.2558 9.48428 11.2674 9.49535 11.2828C9.51098 11.3078 9.51317 11.3353 9.5041 11.3647C9.5941 11.3966 9.68473 11.4209 9.77848 11.4375C9.79692 11.3847 9.82879 11.36 9.87129 11.3631C9.89098 11.3647 9.90879 11.3706 9.92442 11.3841C9.94629 11.4041 9.9566 11.4294 9.95473 11.4606C10.051 11.4675 10.145 11.4681 10.2385 11.4606C10.2454 11.4003 10.2694 11.37 10.3179 11.3631C10.3363 11.3606 10.355 11.3643 10.371 11.3738C10.3827 11.3804 10.3927 11.3895 10.4004 11.4006C10.4081 11.4116 10.4132 11.4242 10.4154 11.4375C10.5097 11.42 10.6013 11.3959 10.6897 11.3644C10.6819 11.3053 10.6963 11.27 10.736 11.2516C10.7504 11.2453 10.7662 11.2429 10.7819 11.2444C10.7982 11.2456 10.8129 11.2506 10.8247 11.2613C10.8363 11.2709 10.846 11.2828 10.8572 11.295C10.9424 11.2548 11.0241 11.2077 11.1016 11.1541C11.0697 11.1041 11.0885 11.0563 11.1144 11.035C11.1235 11.0272 11.134 11.0214 11.1453 11.0177C11.1566 11.0141 11.1686 11.0127 11.1805 11.0137C11.1923 11.0147 11.2039 11.0181 11.2144 11.0237C11.225 11.0292 11.2343 11.0368 11.2419 11.0459C11.3141 10.9841 11.3819 10.9169 11.4425 10.8447C11.4072 10.8044 11.4004 10.7619 11.4263 10.7253C11.4368 10.7089 11.4529 10.6969 11.4716 10.6916C11.4849 10.6873 11.4991 10.6862 11.5129 10.6883C11.5267 10.6905 11.5398 10.6957 11.5513 10.7038C11.606 10.625 11.6535 10.5434 11.6941 10.4578C11.6485 10.4272 11.6319 10.3913 11.6457 10.3503C11.6507 10.3321 11.6617 10.3161 11.6769 10.305C11.6891 10.2965 11.703 10.291 11.7176 10.2888C11.7323 10.2867 11.7472 10.2879 11.7613 10.2925C11.7816 10.2484 11.8322 10.0628 11.835 10.0178C11.8134 10.0139 11.7939 10.0024 11.78 9.98531C11.7728 9.97688 11.7673 9.96702 11.764 9.95637C11.7607 9.94572 11.7597 9.93451 11.761 9.92344C11.7622 9.90365 11.7704 9.88492 11.7841 9.87063C11.7935 9.86072 11.805 9.85305 11.8178 9.84818C11.8305 9.84331 11.8442 9.84137 11.8579 9.8425C11.8657 9.74798 11.8657 9.65297 11.8579 9.55844C11.7982 9.5525 11.7697 9.52938 11.7619 9.48219C11.7584 9.46435 11.761 9.44584 11.7694 9.42969C11.7759 9.4172 11.7851 9.40638 11.7964 9.39809C11.8078 9.38979 11.8209 9.38424 11.8347 9.38188C11.8183 9.28851 11.794 9.19672 11.7619 9.1075C11.7041 9.11719 11.6685 9.10156 11.6494 9.06156C11.6445 9.05087 11.6417 9.0393 11.6413 9.02752C11.6408 9.01575 11.6428 9.004 11.6469 8.99298C11.6511 8.98195 11.6574 8.97187 11.6655 8.96331C11.6736 8.95475 11.6833 8.94789 11.6941 8.94313C11.6536 8.85722 11.6058 8.77494 11.5513 8.69719C11.501 8.72125 11.46 8.71563 11.4313 8.68125C11.4185 8.66673 11.4114 8.64809 11.4113 8.62875C11.4107 8.61502 11.4133 8.60134 11.419 8.5888C11.4246 8.57627 11.4331 8.56523 11.4438 8.55657C11.3821 8.48433 11.3149 8.41694 11.2429 8.355C11.1997 8.39188 11.1579 8.39657 11.1222 8.37094C11.1061 8.36015 11.0942 8.34399 11.0888 8.32532C11.0849 8.3122 11.0841 8.29837 11.0863 8.28489C11.0886 8.2714 11.0939 8.25861 11.1019 8.2475C11.024 8.1932 10.9418 8.14543 10.856 8.10469C10.8238 8.15094 10.7875 8.16625 10.7466 8.1525C10.7285 8.1467 10.7126 8.13533 10.7013 8.12C10.693 8.10781 10.6878 8.09384 10.6859 8.07924C10.6841 8.06464 10.6857 8.0498 10.6907 8.03594C10.6015 8.0037 10.5097 7.97934 10.4163 7.96313C10.3985 8.01375 10.3663 8.04 10.3247 8.0375C10.3053 8.03688 10.2866 8.02985 10.2716 8.0175C10.2605 8.00811 10.2518 7.99614 10.2463 7.98264C10.2408 7.96914 10.2386 7.95451 10.24 7.94C10.1456 7.93198 10.0507 7.93208 9.95629 7.94032C9.94973 7.99657 9.92535 8.02875 9.88379 8.03563C9.86511 8.03962 9.84562 8.0372 9.82848 8.02875C9.8157 8.02243 9.80461 8.01315 9.79613 8.00168C9.78765 7.99021 9.78203 7.97689 9.77973 7.96282C9.68633 7.9798 9.59446 8.00436 9.50504 8.03625C9.51504 8.09156 9.49942 8.12782 9.46129 8.1475C9.44473 8.15594 9.42723 8.15938 9.40785 8.15594C9.39329 8.15395 9.3795 8.14821 9.36783 8.13928C9.35616 8.13035 9.34701 8.11854 9.34129 8.105C9.28785 8.125 9.11785 8.22344 9.09535 8.24813C9.11848 8.29438 9.11317 8.33531 9.08129 8.36469C9.07229 8.37265 9.06177 8.37871 9.05038 8.38252C9.03898 8.38634 9.02694 8.38782 9.01496 8.38689C9.00297 8.38595 8.9913 8.38262 8.98064 8.37709C8.96997 8.37156 8.96052 8.36394 8.95285 8.35469C8.88074 8.41633 8.81356 8.48352 8.75192 8.55563Z" fill="#010088"/>
<path fill-rule="evenodd" clip-rule="evenodd" d="M10.9624 11.1959C10.9586 11.1919 10.9549 11.1891 10.9521 11.1847C10.7704 10.907 10.5882 10.6296 10.4055 10.3525C10.4014 10.3447 10.3968 10.3369 10.393 10.3281C10.3505 10.2291 10.3089 10.13 10.2655 10.0313C10.264 10.0262 10.2621 10.0212 10.2596 10.0166C10.2421 10.0231 10.2261 10.0306 10.2074 10.0378L10.2136 10.0538C10.2527 10.1497 10.2902 10.2459 10.3299 10.3419C10.3405 10.3675 10.3449 10.3944 10.3505 10.4213C10.3811 10.5647 10.4099 10.7088 10.4408 10.8525L10.5464 11.3659C10.547 11.3672 10.5472 11.3685 10.547 11.3698C10.5468 11.3711 10.5463 11.3724 10.5455 11.3734L10.5411 11.3625C10.4555 11.1003 10.3677 10.8384 10.2818 10.5763C10.2646 10.525 10.2493 10.4744 10.2305 10.4231C10.2218 10.3975 10.2189 10.3713 10.2149 10.3447C10.2039 10.2703 10.1946 10.1953 10.1824 10.1209C10.1808 10.1031 10.178 10.0856 10.1755 10.0684C10.1747 10.0613 10.1736 10.0542 10.1721 10.0472C10.1533 10.0491 10.1361 10.0516 10.1174 10.0538C10.1174 10.0613 10.118 10.0691 10.1186 10.0769C10.1296 10.1684 10.1389 10.2603 10.1521 10.3516C10.1589 10.4016 10.1555 10.4506 10.1527 10.5006C10.1508 10.5428 10.148 10.585 10.1461 10.6275C10.1405 10.7131 10.1361 10.7984 10.1302 10.8838L10.1208 11.06C10.1155 11.16 10.1093 11.2597 10.1039 11.3591C10.1014 11.3872 10.1008 11.4159 10.098 11.4434L10.0905 11.3488L10.0808 11.1438L10.0696 10.9609C10.0664 10.8984 10.0624 10.8363 10.0589 10.7738C10.0561 10.7328 10.0546 10.6919 10.0521 10.6516C10.0486 10.5869 10.0446 10.5222 10.0414 10.4581C10.0384 10.424 10.0392 10.3896 10.0439 10.3556C10.0505 10.3094 10.0555 10.2622 10.0611 10.2153C10.0674 10.1691 10.0727 10.1225 10.0783 10.0769C10.0789 10.0697 10.0789 10.0622 10.0799 10.0538L10.0252 10.0466C10.0236 10.0591 10.0208 10.0713 10.0186 10.0838C10.0057 10.1792 9.99232 10.2746 9.97863 10.37C9.97488 10.4072 9.9602 10.4416 9.9477 10.4763C9.85145 10.7694 9.75488 11.0628 9.65738 11.3556C9.6552 11.3609 9.65426 11.3659 9.6502 11.3709C9.6502 11.3672 9.6502 11.3644 9.65176 11.3609C9.69207 11.1634 9.7327 10.9656 9.77457 10.7681C9.80145 10.6369 9.82926 10.5059 9.85582 10.375L9.86332 10.3534C9.90363 10.2544 9.94238 10.1544 9.98363 10.0553C9.98507 10.0495 9.98717 10.0438 9.98988 10.0384C9.97267 10.0311 9.95538 10.0239 9.93801 10.0169C9.93582 10.0225 9.93238 10.0272 9.93051 10.0328C9.88738 10.1322 9.8452 10.2319 9.80207 10.3313C9.79938 10.3387 9.79603 10.3459 9.79207 10.3528C9.60767 10.6322 9.42382 10.9118 9.24051 11.1919C9.23799 11.1961 9.2347 11.1998 9.23082 11.2028C9.23238 11.1978 9.2352 11.1938 9.23707 11.1894L9.68895 10.2934C9.69284 10.2853 9.69766 10.2777 9.70332 10.2706L9.89645 10.0116C9.90051 10.0072 9.90301 10.0031 9.90676 9.99844C9.89082 9.98688 9.87801 9.97626 9.86207 9.96407C9.85863 9.96813 9.85551 9.97157 9.8527 9.97563C9.7852 10.0603 9.71863 10.1456 9.6527 10.23C9.6452 10.2378 9.63832 10.2459 9.62988 10.2531C9.38363 10.4734 9.13738 10.6925 8.8902 10.9131C8.8852 10.9172 8.8802 10.9216 8.87395 10.9244C8.87676 10.9216 8.87832 10.9181 8.8802 10.9159C9.08301 10.6894 9.28426 10.4631 9.48613 10.2366C9.4977 10.2241 9.50926 10.2116 9.5202 10.1981C9.54332 10.1713 9.56926 10.1475 9.59738 10.1263L9.82176 9.94969C9.82676 9.94594 9.83051 9.94188 9.83613 9.93813C9.82504 9.92316 9.81358 9.90847 9.80176 9.89407C9.79676 9.89719 9.7927 9.90032 9.78801 9.90376C9.70207 9.96813 9.61582 10.0319 9.52988 10.0966C9.52026 10.1038 9.51002 10.1102 9.49926 10.1156C9.20582 10.2638 8.91082 10.4119 8.61676 10.56C8.61113 10.5625 8.60582 10.5656 8.59926 10.5656L8.61113 10.5572L9.15988 10.1978C9.25551 10.135 9.35145 10.0722 9.44645 10.0091C9.45457 10.0044 9.46301 10.0003 9.4702 9.99657C9.56988 9.95438 9.66926 9.91188 9.76801 9.86938C9.7727 9.86751 9.77738 9.86563 9.78301 9.86282L9.76207 9.81126C9.75613 9.81282 9.75238 9.81438 9.7477 9.81594C9.64645 9.85626 9.54613 9.89719 9.44426 9.93719C9.42332 9.94501 9.40051 9.94876 9.37832 9.95344L8.69551 10.0953C8.60957 10.1138 8.52207 10.1319 8.43582 10.1497C8.43234 10.1505 8.42869 10.1501 8.42551 10.1484C8.44926 10.1409 8.47301 10.1325 8.49645 10.1247C8.79145 10.0275 9.08613 9.93063 9.3802 9.83282C9.40332 9.82501 9.42801 9.82282 9.45145 9.81907C9.54645 9.80594 9.64113 9.79219 9.7352 9.77876C9.74097 9.77774 9.74671 9.77649 9.75238 9.77501C9.75051 9.75688 9.7477 9.73876 9.74613 9.72001L9.70051 9.72501L9.51176 9.74782C9.47645 9.75251 9.44145 9.75626 9.40676 9.76063C9.39832 9.76157 9.3902 9.76188 9.38207 9.76157L9.18332 9.75001L9.06582 9.74344L8.86332 9.73157L8.56801 9.71532C8.49676 9.71157 8.42738 9.70688 8.35645 9.70188C8.3677 9.70094 8.3802 9.69907 8.39238 9.69907L8.63457 9.68532L8.95457 9.66719L9.21957 9.65219L9.38582 9.64219C9.39238 9.64188 9.4002 9.64282 9.40676 9.64344L9.59738 9.66626L9.73238 9.68251H9.74613C9.7477 9.66469 9.75051 9.64782 9.75238 9.62844C9.74082 9.62594 9.7277 9.62407 9.71613 9.62188C9.6327 9.61032 9.54988 9.59813 9.46645 9.58594C9.44911 9.58396 9.43182 9.58167 9.41457 9.57907C9.40501 9.57778 9.39559 9.57558 9.38645 9.57251C9.13801 9.49094 8.89113 9.40876 8.64301 9.32719C8.57396 9.30456 8.505 9.28164 8.43613 9.25844C8.43018 9.25687 8.42457 9.25422 8.41957 9.25063L8.46301 9.25938L8.99332 9.36969C9.1352 9.39938 9.27926 9.42876 9.42113 9.45876C9.42967 9.46064 9.43804 9.46326 9.44613 9.46657C9.54613 9.50594 9.6452 9.54657 9.74613 9.58657L9.76113 9.59251C9.76801 9.57532 9.77551 9.55876 9.78301 9.54094C9.77792 9.53791 9.77259 9.53529 9.76707 9.53313C9.6677 9.49126 9.56863 9.44844 9.46957 9.40563C9.46179 9.40234 9.45427 9.39848 9.44707 9.39407C9.16676 9.21063 8.8877 9.02626 8.60707 8.84251C8.60337 8.84045 8.60042 8.83728 8.59863 8.83344L8.60988 8.83969C8.88926 8.98032 9.16895 9.12094 9.44895 9.26126C9.4952 9.28438 9.5402 9.31219 9.58145 9.34376C9.64957 9.39657 9.71895 9.44719 9.78832 9.49907C9.79301 9.50251 9.79707 9.50563 9.80207 9.50876L9.83645 9.46532L9.82426 9.45469L9.5702 9.25501C9.56145 9.24813 9.55457 9.24094 9.54707 9.23344C9.32582 8.98563 9.10426 8.73751 8.88363 8.48969C8.88044 8.48714 8.87797 8.4838 8.87645 8.48001C8.88301 8.48063 8.88551 8.48501 8.88832 8.48782C9.02238 8.60657 9.1552 8.72532 9.28832 8.84407L9.6327 9.15094C9.63895 9.15657 9.64488 9.16344 9.65051 9.16969L9.8477 9.42032C9.8527 9.42594 9.85645 9.43188 9.86207 9.43938L9.90738 9.40469C9.90457 9.40032 9.90082 9.39688 9.89863 9.39282C9.83426 9.30688 9.7702 9.22063 9.7052 9.13501C9.6985 9.12492 9.69235 9.11449 9.68676 9.10376C9.53676 8.80844 9.38801 8.51188 9.23895 8.21626C9.23613 8.21063 9.23332 8.20626 9.2327 8.20032C9.23551 8.20344 9.23832 8.20626 9.2402 8.20907L9.55957 8.69719L9.78551 9.04094C9.79332 9.05407 9.80207 9.06782 9.80707 9.08219C9.84926 9.17844 9.88988 9.27501 9.93082 9.37126C9.93363 9.37563 9.93551 9.38032 9.93832 9.38594L9.9902 9.36438L9.98457 9.35126C9.94551 9.25376 9.90738 9.15626 9.8677 9.05938C9.85676 9.03469 9.8527 9.00907 9.84738 8.98344C9.81332 8.82063 9.78051 8.65751 9.74645 8.49438C9.71301 8.33751 9.68113 8.18188 9.64832 8.02438C9.6477 8.02344 9.64832 8.02219 9.64957 8.01907L9.67707 8.10251C9.7752 8.39719 9.87238 8.69251 9.96863 8.98782C9.97676 9.01094 9.97957 9.03626 9.98301 9.06032C9.99457 9.14219 10.0061 9.22469 10.0193 9.30719C10.0214 9.32282 10.0224 9.33844 10.0255 9.35563L10.0799 9.34876V9.32813C10.0721 9.26282 10.0636 9.19719 10.0561 9.13219C10.0514 9.09407 10.048 9.05688 10.0427 9.01969C10.0396 8.99469 10.0396 8.96939 10.0427 8.94438C10.0449 8.90188 10.048 8.85969 10.0499 8.81751L10.0652 8.56282C10.068 8.51719 10.0689 8.47094 10.0718 8.42532C10.0758 8.36594 10.0789 8.30563 10.0824 8.24594C10.0852 8.20219 10.0874 8.15813 10.0893 8.11469C10.0918 8.06313 10.0958 8.01188 10.1002 7.96063C10.1014 7.97469 10.1021 7.98907 10.1027 8.00407C10.1071 8.06688 10.1102 8.12969 10.1139 8.19282L10.1302 8.47907L10.1399 8.63969C10.1449 8.73251 10.1493 8.82563 10.1546 8.91844C10.1561 8.93251 10.1568 8.94563 10.1577 8.95938C10.1618 8.99563 10.1546 9.03157 10.1514 9.06751L10.1314 9.23126C10.1283 9.26219 10.1236 9.29313 10.1199 9.32438C10.1193 9.33188 10.1193 9.34001 10.1171 9.34907C10.1364 9.35188 10.1539 9.35376 10.1733 9.35626C10.1761 9.34282 10.1774 9.33032 10.1796 9.31719C10.1946 9.21563 10.2089 9.11407 10.2233 9.01188C10.2246 9.00438 10.2277 8.99657 10.2296 8.98876C10.3314 8.68313 10.4314 8.37719 10.5327 8.07094C10.5377 8.05688 10.5414 8.04344 10.5493 8.03001C10.5484 8.03714 10.5473 8.04423 10.5458 8.05126C10.5002 8.27251 10.4527 8.49313 10.4074 8.71376C10.3871 8.81719 10.3655 8.92094 10.3439 9.02438C10.3424 9.03296 10.3397 9.04127 10.3358 9.04907L10.2152 9.35063C10.213 9.35501 10.2114 9.35969 10.2093 9.36532C10.228 9.37251 10.2433 9.37969 10.2614 9.38688L10.2686 9.37188L10.3946 9.07594C10.3996 9.06594 10.4033 9.05626 10.4099 9.04813L10.9552 8.21626C10.9586 8.21188 10.9614 8.20751 10.9668 8.20438C10.9646 8.20876 10.963 8.21313 10.9602 8.21751L10.5118 9.10813C10.5071 9.11657 10.5024 9.12501 10.4968 9.13251C10.4318 9.21907 10.3664 9.30563 10.3024 9.39157C10.2993 9.39649 10.2958 9.40119 10.2921 9.40563L10.3364 9.44032C10.34 9.4366 10.3432 9.43263 10.3461 9.42844C10.4124 9.34407 10.4783 9.25938 10.5455 9.17501C10.5529 9.16552 10.5612 9.15673 10.5702 9.14876C10.8171 8.92813 11.0643 8.70782 11.3114 8.48782C11.3155 8.48438 11.3183 8.48094 11.3249 8.47907L11.3168 8.48907C11.2158 8.60313 11.1149 8.71657 11.0124 8.83001C10.8905 8.96594 10.7702 9.10157 10.6493 9.23751C10.643 9.24438 10.6355 9.25032 10.6289 9.25594L10.3749 9.45563L10.3624 9.46563C10.3743 9.48063 10.3849 9.49501 10.3974 9.51001L10.4108 9.50001L10.6711 9.30501C10.6778 9.30027 10.6847 9.29589 10.6918 9.29188C10.9918 9.14126 11.2899 8.99126 11.588 8.84063C11.593 8.83844 11.5971 8.83657 11.6024 8.83657C11.5886 8.84563 11.5758 8.85438 11.5621 8.86282C11.2924 9.04001 11.0227 9.21719 10.7521 9.39438C10.7446 9.39876 10.7377 9.40313 10.7296 9.40657C10.6299 9.44969 10.5293 9.49219 10.4305 9.53501L10.4146 9.54126C10.423 9.55876 10.4289 9.57532 10.4364 9.59282L10.4508 9.58813C10.5511 9.54844 10.6508 9.50688 10.7521 9.46844C10.7771 9.45844 10.8046 9.45407 10.8318 9.44844L11.2921 9.35282C11.4352 9.32344 11.5771 9.29344 11.7205 9.26376C11.7336 9.26094 11.7458 9.25813 11.7596 9.25563C11.763 9.25563 11.7661 9.25501 11.7711 9.25688L11.7274 9.27126C11.4221 9.37219 11.1177 9.47282 10.8124 9.57251C10.7893 9.58063 10.7636 9.58282 10.7396 9.58657C10.6711 9.59688 10.6036 9.60594 10.5371 9.61563C10.5127 9.61907 10.4886 9.62282 10.4643 9.62594L10.4464 9.62907C10.4483 9.64751 10.4511 9.66469 10.4524 9.68469L10.4996 9.67969L10.6683 9.65969C10.7105 9.65438 10.7546 9.64844 10.7986 9.64438C10.8183 9.64282 10.8383 9.64469 10.8586 9.64563C10.9014 9.64751 10.9443 9.65126 10.9889 9.65313L11.2414 9.66813C11.2789 9.67032 11.3164 9.67188 11.3552 9.67438L11.6127 9.68907C11.6736 9.69282 11.7364 9.69563 11.7971 9.69938C11.8121 9.70024 11.8271 9.7016 11.8421 9.70344L11.7964 9.70719L11.6074 9.71751L11.3733 9.73126L11.1968 9.74063C11.1155 9.74563 11.0327 9.75032 10.9508 9.75563C10.9058 9.75751 10.8596 9.76188 10.8143 9.76219C10.7883 9.76282 10.7611 9.75782 10.7358 9.75501C10.6803 9.74849 10.6248 9.74183 10.5693 9.73501L10.4627 9.72219H10.4524C10.4511 9.74032 10.4483 9.75813 10.4464 9.77719C10.5566 9.7935 10.6668 9.80944 10.7771 9.82501C10.8096 9.82907 10.838 9.84188 10.8686 9.85157L11.7574 10.145C11.7632 10.1462 11.7686 10.1487 11.7733 10.1522C11.7658 10.1509 11.7586 10.1497 11.7511 10.1491L10.9793 9.98813L10.7755 9.94563C10.7689 9.94376 10.7602 9.94126 10.753 9.93782C10.6527 9.89813 10.5521 9.85751 10.4511 9.81719L10.4377 9.81251C10.4304 9.82962 10.4228 9.8466 10.4149 9.86344L10.4314 9.87126C10.5311 9.91376 10.6302 9.95594 10.7293 9.99876C10.7371 10.0022 10.7449 10.0063 10.753 10.0119L11.5849 10.5569C11.5889 10.56 11.5943 10.5638 11.5977 10.5697C11.5936 10.5672 11.5889 10.5656 11.5855 10.5631L11.1521 10.3456C11.0008 10.2688 10.8483 10.1925 10.6955 10.1156C10.6858 10.1108 10.6766 10.1048 10.6683 10.0978C10.5824 10.0338 10.4955 9.96938 10.4096 9.90469C10.4057 9.90146 10.4017 9.89853 10.3974 9.89594C10.3855 9.91032 10.3749 9.92438 10.3624 9.93938L10.3743 9.94876C10.458 10.0156 10.5433 10.0825 10.6274 10.1491C10.637 10.1559 10.6457 10.1639 10.6533 10.1728L11.3155 10.9138C11.3182 10.9175 11.3203 10.9216 11.3218 10.9259C11.3183 10.9222 11.3136 10.9197 11.3102 10.9169C11.0618 10.6947 10.813 10.4738 10.5639 10.2519C10.5583 10.2469 10.5533 10.2412 10.5489 10.235L10.3464 9.97688C10.3436 9.97282 10.3402 9.96907 10.3368 9.96501C10.3224 9.97688 10.3083 9.98751 10.2939 10C10.2952 10.0038 10.298 10.0078 10.3005 10.0116L10.4971 10.2734C10.5027 10.2811 10.5077 10.2891 10.5121 10.2975C10.6611 10.5931 10.8099 10.8894 10.9586 11.1853C10.9611 11.1893 10.9627 11.1938 10.9633 11.1984H10.9624V11.1959Z" fill="#010088"/>
<path fill-rule="evenodd" clip-rule="evenodd" d="M10.96 11.196C10.9631 11.1991 10.965 11.2025 10.9675 11.2053C10.9659 11.206 10.9659 11.2069 10.964 11.2072C10.9634 11.2028 10.9612 11.2 10.9606 11.196H10.96Z" fill="#010088"/>
</svg>
