<svg width="20" height="20" viewBox="0 0 20 20" fill="none" xmlns="http://www.w3.org/2000/svg">
<g clip-path="url(#clip0_3_3169)">
<path d="M6.11122 9.16666L5.55566 10.8889H6.66678L6.11122 9.16666Z" fill="white"/>
<path d="M16.8329 3.66666H7.94401V6.44443H10.1662V7.55555H2.94401C1.99957 7.55555 1.27734 8.27777 1.27734 9.22221V15.3333C1.27734 16.2778 1.99957 17 2.94401 17H3.49957V19.8333L6.99957 17H10.7218V13.1111H16.8329C17.7773 13.1111 18.4996 12.3889 18.4996 11.4444V5.33332C18.4996 4.38888 17.7773 3.66666 16.8329 3.66666ZM7.27734 14.7222L6.99957 13.8333H5.27734L4.94401 14.7222H3.61068L5.44401 9.77777H6.77734L8.61068 14.7222H7.27734ZM15.7218 10.3333V11.4444C14.9996 11.4444 14.2218 11.2222 13.5551 10.8889C12.8885 11.2222 12.1107 11.3889 11.3329 11.4444L11.2773 10.3333C11.6662 10.3333 12.0551 10.2778 12.444 10.1667C11.944 9.66666 11.6107 9.05555 11.444 8.38888H12.6107C12.7773 8.88888 13.1107 9.27777 13.4996 9.6111C14.1107 9.1111 14.4996 8.38888 14.5551 7.55555H11.2218V6.44443H12.8885V5.33332H13.9996V6.44443H15.8329L15.8885 6.99999C15.944 8.16666 15.4996 9.33332 14.6662 10.1667C15.0551 10.2778 15.3885 10.3333 15.7218 10.3333Z" fill="white"/>
</g>
<defs>
<clipPath id="clip0_3_3169">
<rect width="20" height="20" fill="white"/>
</clipPath>
</defs>
</svg>
