<svg width="18" height="18" viewBox="0 0 18 18" fill="none" xmlns="http://www.w3.org/2000/svg">
<path fill-rule="evenodd" clip-rule="evenodd" d="M9 15.9375C7.90299 15.9375 6.9218 15.4417 6.2683 14.6619C5.85553 15.4217 5.0505 15.9375 4.125 15.9375C2.77881 15.9375 1.6875 14.8462 1.6875 13.5V7.5C1.6875 6.15381 2.77881 5.0625 4.125 5.0625C5.05674 5.0625 5.86638 5.58528 6.27659 6.35353C6.3436 6.24331 6.4158 6.126 6.49361 5.99961L8.2025 3.22266C8.50277 2.73472 9.03467 2.4375 9.6076 2.4375C10.6188 2.4375 11.392 3.3388 11.2382 4.3382L11.056 5.52303C10.9112 6.46395 11.6392 7.3125 12.5912 7.3125H13.1085C15.4294 7.3125 16.9389 9.75495 15.901 11.8308L15.0396 13.5536C14.3091 15.0146 12.8158 15.9375 11.1824 15.9375H9ZM9.16062 3.81227C9.25614 3.65705 9.42534 3.5625 9.6076 3.5625C9.92926 3.5625 10.1752 3.84921 10.1263 4.16713L9.94404 5.35197C9.69444 6.97436 10.9497 8.4375 12.5912 8.4375H13.1085C14.5931 8.4375 15.5587 9.99985 14.8947 11.3277L14.0334 13.0505C13.4934 14.1304 12.3897 14.8125 11.1824 14.8125H9C7.65381 14.8125 6.5625 13.7212 6.5625 12.375V9.79956C6.5625 8.9179 6.56573 8.56323 6.64235 8.22741C6.66671 8.12065 6.69655 8.01521 6.73176 7.91152C6.84251 7.58536 7.02564 7.28161 7.48772 6.53073L9.16062 3.81227ZM4.125 6.1875C4.84987 6.1875 5.4375 6.77513 5.4375 7.5V13.5C5.4375 14.2249 4.84987 14.8125 4.125 14.8125C3.40013 14.8125 2.8125 14.2249 2.8125 13.5V7.5C2.8125 6.77513 3.40013 6.1875 4.125 6.1875Z" fill="black"/>
</svg>
