<svg width="12" height="15" viewBox="0 0 12 15" fill="none" xmlns="http://www.w3.org/2000/svg">
<path fill-rule="evenodd" clip-rule="evenodd" d="M7.8537 13.1337C9.39353 11.1701 11.3332 8.31728 11.3332 6.4058C11.3332 3.23617 8.94536 0.666672 5.99984 0.666672C3.05432 0.666672 0.666504 3.23617 0.666504 6.4058C0.666504 8.31728 2.60614 11.1701 4.14598 13.1337C4.94933 14.1581 5.35101 14.6703 5.99984 14.6703C6.64866 14.6703 7.05034 14.1581 7.8537 13.1337ZM5.99984 8.66667C4.89527 8.66667 3.99984 7.77124 3.99984 6.66667C3.99984 5.5621 4.89527 4.66667 5.99984 4.66667C7.10441 4.66667 7.99984 5.5621 7.99984 6.66667C7.99984 7.77124 7.10441 8.66667 5.99984 8.66667Z" fill="#FF3489"/>
</svg>
