<svg width="22" height="22" viewBox="0 0 22 22" fill="none" xmlns="http://www.w3.org/2000/svg">
<path fill-rule="evenodd" clip-rule="evenodd" d="M10.9998 5.72916C9.10136 5.72916 7.56234 7.26818 7.56234 9.16666C7.56234 11.0651 9.10136 12.6042 10.9998 12.6042C12.8983 12.6042 14.4373 11.0651 14.4373 9.16666C14.4373 7.26818 12.8983 5.72916 10.9998 5.72916ZM8.93734 9.16666C8.93734 8.02757 9.86075 7.10416 10.9998 7.10416C12.1389 7.10416 13.0623 8.02757 13.0623 9.16666C13.0623 10.3057 12.1389 11.2292 10.9998 11.2292C9.86075 11.2292 8.93734 10.3057 8.93734 9.16666Z" fill="black"/>
<path fill-rule="evenodd" clip-rule="evenodd" d="M10.9998 0.229156C6.52344 0.229156 2.979 4.11837 2.979 8.80796C2.979 10.312 3.72618 12.083 4.66626 13.745C5.62155 15.4339 6.84081 17.1199 7.90978 18.483L7.94544 18.5285C8.46721 19.1939 8.9117 19.7608 9.34273 20.1523C9.81297 20.5795 10.3315 20.8592 10.9998 20.8592C11.6681 20.8592 12.1867 20.5795 12.6569 20.1523C13.088 19.7608 13.5325 19.1939 14.0542 18.5285L14.0899 18.483C15.1589 17.1199 16.3781 15.4339 17.3334 13.745C18.2735 12.083 19.0207 10.312 19.0207 8.80796C19.0207 4.11837 15.4762 0.229156 10.9998 0.229156ZM4.354 8.80796C4.354 4.78106 7.37605 1.60416 10.9998 1.60416C14.6236 1.60416 17.6457 4.78106 17.6457 8.80796C17.6457 9.93225 17.0594 11.4367 16.1366 13.068C15.2291 14.6725 14.0562 16.2977 13.0079 17.6345C12.4405 18.358 12.067 18.8307 11.7324 19.1346C11.4273 19.4117 11.2237 19.4842 10.9998 19.4842C10.776 19.4842 10.5724 19.4117 10.2673 19.1346C9.93272 18.8307 9.55915 18.358 8.99177 17.6345C7.94347 16.2977 6.7706 14.6725 5.86307 13.068C4.94032 11.4367 4.354 9.93225 4.354 8.80796Z" fill="black"/>
</svg>
