<svg width="20" height="20" viewBox="0 0 20 20" fill="none" xmlns="http://www.w3.org/2000/svg">
<path d="M4.615 19C4.171 19 3.791 18.8417 3.475 18.525C3.15833 18.209 3 17.829 3 17.385V8.615C3 8.171 3.15833 7.791 3.475 7.475C3.791 7.15833 4.171 7 4.615 7H6V5C6 3.886 6.388 2.94067 7.164 2.164C7.94 1.38733 8.88533 0.999334 10 1C11.114 1 12.0593 1.388 12.836 2.164C13.6127 2.94 14.0007 3.88533 14 5V7H15.385C15.829 7 16.209 7.15833 16.525 7.475C16.8417 7.791 17 8.171 17 8.615V17.385C17 17.829 16.8417 18.209 16.525 18.525C16.209 18.8417 15.829 19 15.385 19H4.615ZM10 14.5C10.422 14.5 10.7773 14.3553 11.066 14.066C11.3553 13.7773 11.5 13.422 11.5 13C11.5 12.578 11.3553 12.2227 11.066 11.934C10.7773 11.6447 10.422 11.5 10 11.5C9.578 11.5 9.22267 11.6447 8.934 11.934C8.64467 12.2227 8.5 12.578 8.5 13C8.5 13.422 8.64467 13.7773 8.934 14.066C9.22267 14.3553 9.578 14.5 10 14.5ZM7 7H13V5C13 4.16667 12.7083 3.45833 12.125 2.875C11.5417 2.29167 10.8333 2 10 2C9.16667 2 8.45833 2.29167 7.875 2.875C7.29167 3.45833 7 4.16667 7 5V7Z" fill="white"/>
</svg>
