<svg width="29" height="28" viewBox="0 0 29 28" fill="none" xmlns="http://www.w3.org/2000/svg">
<g clip-path="url(#clip0_369_55)">
<path d="M22.2114 12.7635C21.8698 12.5243 21.5139 12.4008 21.1674 12.3986C21.2543 12.1339 21.2672 11.8437 21.2024 11.5495C21.1002 11.1054 20.8305 10.7111 20.4427 10.4395C20.1117 10.2078 19.736 10.0947 19.3723 10.0927L21.2762 7.3737C21.6518 7.4225 22.0312 7.417 22.4003 7.3488C23.2495 7.1933 23.9786 6.73424 24.4536 6.05583C25.5129 4.54422 25.0225 2.36791 23.3614 1.20484C22.9072 0.886819 22.4098 0.671072 21.8844 0.564463C20.9199 0.364993 19.9604 0.545776 19.2119 1.06044C18.3829 0.526271 17.3891 0.31733 16.4616 0.486352C15.61 0.642402 14.88 1.10088 14.406 1.77776C13.5775 2.96101 13.7008 4.54904 14.5873 5.74251L10.9045 11.0021L9.93026 7.09768C9.61887 6.11207 8.9202 5.56513 8.01394 5.59596C6.67053 5.64201 6.30335 6.53531 6.40858 7.36061L7.0636 11.9492C7.04658 12.4097 6.84706 13.06 6.63565 13.7475C6.35297 14.6673 6.06085 15.6185 6.1108 16.3952C6.19965 17.7749 6.14832 17.9335 5.93282 18.6018C5.89031 18.7334 5.8422 18.8832 5.78811 19.0629C5.69903 19.3606 5.57592 19.6193 5.29185 20.112C5.03632 20.4769 4.99973 20.9553 5.19111 21.4227C5.50785 22.2112 6.30416 23.4429 8.29617 24.8377C10.193 26.1659 11.6151 26.595 12.4727 26.7207C13.099 26.8156 13.6726 26.559 13.9393 26.0542C14.1624 25.63 14.4172 25.2339 14.6973 24.8762C15.4783 23.8723 16.214 23.2227 17.3808 22.3048C17.8945 21.9026 18.3286 21.4507 18.6712 20.9614L22.7626 15.1183C23.2989 14.3529 23.0671 13.3627 22.2114 12.7635ZM18.9713 1.6747C18.9771 1.67881 18.983 1.68293 18.9889 1.68705C19.0051 1.69842 19.0215 1.71024 19.0365 1.72224C19.1736 1.83155 19.3559 1.83693 19.4778 1.73733C20.1014 1.2294 20.9471 1.03885 21.7998 1.21508C22.2239 1.30127 22.6249 1.47533 22.9918 1.73218C24.3333 2.67153 24.7289 4.429 23.874 5.64997C23.4903 6.1979 22.9015 6.56869 22.2156 6.69421C22.0527 6.72414 21.8873 6.7363 21.7214 6.73785L22.6318 5.43762C22.8788 5.08491 22.9607 4.6455 22.8623 4.1979C22.7601 3.75379 22.4901 3.35927 22.1023 3.08771C21.2978 2.52441 20.2259 2.66184 19.7133 3.39402L19.5328 3.65167C19.4057 3.31422 19.1708 3.00357 18.841 2.7726C18.4534 2.50125 17.9908 2.38241 17.5351 2.43852C17.0837 2.49848 16.6991 2.72595 16.4519 3.07891L14.9862 5.17222C14.4059 4.23802 14.3648 3.07023 14.9857 2.18361C15.3682 1.63722 15.958 1.26701 16.6459 1.141C17.4343 0.997693 18.2819 1.19198 18.9713 1.6747Z" fill="#FF3489"/>
</g>
<defs>
<clipPath id="clip0_369_55">
<rect width="28" height="28" fill="white" transform="translate(0.5)"/>
</clipPath>
</defs>
</svg>
