<svg width="29" height="28" viewBox="0 0 29 28" fill="none" xmlns="http://www.w3.org/2000/svg">
<path d="M24.375 1H11.25C9.52688 1 8.125 2.40188 8.125 4.125V12.875H5.625C3.90188 12.875 2.5 14.2769 2.5 16V22.875C2.5 24.5981 3.90188 26 5.625 26H24.375C26.0981 26 27.5 24.5981 27.5 22.875V4.125C27.5 2.40188 26.0981 1 24.375 1ZM8.125 22.875C8.125 23.9091 7.28406 24.75 6.25 24.75H5.625C4.59094 24.75 3.75 23.9091 3.75 22.875V16C3.75 14.9659 4.59094 14.125 5.625 14.125H8.125V22.875ZM26.25 22.875C26.25 23.9091 25.4091 24.75 24.375 24.75H8.74875C9.14188 24.2272 9.375 23.5778 9.375 22.875V4.125C9.375 3.09094 10.2159 2.25 11.25 2.25H24.375C25.4091 2.25 26.25 3.09094 26.25 4.125V22.875ZM23.75 7.25C23.75 7.595 23.4703 7.875 23.125 7.875H18.75C18.4047 7.875 18.125 7.595 18.125 7.25C18.125 6.905 18.4047 6.625 18.75 6.625H23.125C23.4703 6.625 23.75 6.905 23.75 7.25ZM23.75 9.75C23.75 10.095 23.4703 10.375 23.125 10.375H18.75C18.4047 10.375 18.125 10.095 18.125 9.75C18.125 9.405 18.4047 9.125 18.75 9.125H23.125C23.4703 9.125 23.75 9.405 23.75 9.75ZM23.75 12.25C23.75 12.595 23.4703 12.875 23.125 12.875H18.75C18.4047 12.875 18.125 12.595 18.125 12.25C18.125 11.905 18.4047 11.625 18.75 11.625H23.125C23.4703 11.625 23.75 11.905 23.75 12.25ZM23.75 14.75C23.75 15.095 23.4703 15.375 23.125 15.375H12.5C12.1547 15.375 11.875 15.095 11.875 14.75C11.875 14.405 12.1547 14.125 12.5 14.125H23.125C23.4703 14.125 23.75 14.405 23.75 14.75ZM21.25 17.25C21.25 17.595 20.9703 17.875 20.625 17.875H12.5C12.1547 17.875 11.875 17.595 11.875 17.25C11.875 16.905 12.1547 16.625 12.5 16.625H20.625C20.9703 16.625 21.25 16.905 21.25 17.25ZM12.5 12.875H16.25C16.5953 12.875 16.875 12.595 16.875 12.25V7.25C16.875 6.905 16.5953 6.625 16.25 6.625H12.5C12.1547 6.625 11.875 6.905 11.875 7.25V12.25C11.875 12.595 12.1547 12.875 12.5 12.875ZM13.125 7.875H15.625V11.625H13.125V7.875Z" fill="black" stroke="black" stroke-width="0.2"/>
</svg>
