<svg width="29" height="28" viewBox="0 0 29 28" fill="none" xmlns="http://www.w3.org/2000/svg">
<path fill-rule="evenodd" clip-rule="evenodd" d="M11.1919 2C11.6639 2 12.0465 2.38264 12.0465 2.85465V4.29116C12.8091 4.27907 13.6565 4.27907 14.5979 4.27907H14.6231C15.5644 4.27907 16.4118 4.27907 17.1744 4.29116V2.85465C17.1744 2.38264 17.5571 2 18.0291 2C18.5011 2 18.8837 2.38264 18.8837 2.85465V4.35152C20.6066 4.45953 21.9302 4.7387 23.02 5.53045C23.5762 5.9346 24.0654 6.42378 24.4695 6.98003C25.1371 7.89887 25.436 8.97502 25.5799 10.3032C25.7209 11.6047 25.7209 13.2452 25.7209 15.3379V15.4026C25.7209 16.7243 25.7209 17.8607 25.6875 18.8374C25.6143 20.9723 25.3833 22.5414 24.4695 23.799C24.0654 24.3553 23.5762 24.8445 23.02 25.2486C21.7623 26.1624 20.1932 26.3934 18.0583 26.4665C17.0814 26.5 15.9448 26.5 14.6228 26.5H14.5589C12.4661 26.5 10.8256 26.5 9.52412 26.359C8.19595 26.2151 7.1198 25.9162 6.20097 25.2486C5.64471 24.8445 5.15553 24.3553 4.75138 23.799C4.08381 22.8802 3.78489 21.804 3.64099 20.4759C3.49998 19.1744 3.49999 17.5339 3.5 15.4411V15.338C3.49999 13.2452 3.49998 11.6047 3.64099 10.3032C3.78489 8.97502 4.08381 7.89887 4.75138 6.98003C5.15553 6.42378 5.64471 5.9346 6.20097 5.53045C7.29072 4.7387 8.61433 4.45953 10.3372 4.35152V2.85465C10.3372 2.38264 10.7198 2 11.1919 2ZM10.3372 6.06501C8.7851 6.17175 7.88923 6.41667 7.20567 6.91331C6.79452 7.21202 6.43295 7.57359 6.13424 7.98474C5.71365 8.56363 5.46849 9.30457 5.34035 10.4873C5.21048 11.686 5.2093 13.234 5.2093 15.3895C5.2093 17.545 5.21048 19.093 5.34035 20.2918C5.46849 21.4745 5.71365 22.2154 6.13424 22.7943C6.43295 23.2055 6.79452 23.567 7.20567 23.8658C7.78456 24.2863 8.5255 24.5315 9.70824 24.6597C10.907 24.7895 12.455 24.7907 14.6105 24.7907C15.5772 24.7907 16.4244 24.7906 17.1765 24.7784C17.1815 24.2375 17.1983 23.8393 17.2551 23.4808C17.6991 20.6771 19.898 18.4782 22.7017 18.0342C23.0602 17.9774 23.4584 17.9605 23.9993 17.9556C24.0116 17.2034 24.0116 16.3563 24.0116 15.3895C24.0116 13.234 24.0105 11.686 23.8806 10.4873C23.7524 9.30457 23.5073 8.56363 23.0867 7.98474C22.788 7.57359 22.4264 7.21202 22.0153 6.91331C21.3317 6.41667 20.4358 6.17175 18.8837 6.06501V6.27326C18.8837 6.74527 18.5011 7.12791 18.0291 7.12791C17.5571 7.12791 17.1744 6.74527 17.1744 6.27326V6.00066C16.4228 5.98843 15.5763 5.98837 14.6105 5.98837C13.6446 5.98837 12.7981 5.98843 12.0465 6.00066V6.27326C12.0465 6.74527 11.6639 7.12791 11.1919 7.12791C10.7198 7.12791 10.3372 6.74527 10.3372 6.27326V6.06501ZM23.9348 19.666C23.4733 19.6713 23.2028 19.6854 22.9691 19.7224C20.8968 20.0506 19.2716 21.6759 18.9433 23.7482C18.9063 23.9818 18.8922 24.2524 18.8869 24.7138C20.437 24.607 21.3322 24.3621 22.0153 23.8658C22.4264 23.567 22.788 23.2055 23.0867 22.7943C23.583 22.1112 23.8279 21.2161 23.9348 19.666Z" fill="black"/>
<path d="M10.0523 10.8314C10.0523 11.4607 9.54214 11.9709 8.91279 11.9709C8.28344 11.9709 7.77326 11.4607 7.77326 10.8314C7.77326 10.202 8.28344 9.69186 8.91279 9.69186C9.54214 9.69186 10.0523 10.202 10.0523 10.8314Z" fill="black"/>
<path d="M10.0523 15.3895C10.0523 16.0189 9.54214 16.5291 8.91279 16.5291C8.28344 16.5291 7.77326 16.0189 7.77326 15.3895C7.77326 14.7602 8.28344 14.25 8.91279 14.25C9.54214 14.25 10.0523 14.7602 10.0523 15.3895Z" fill="black"/>
<path d="M15.75 10.8314C15.75 11.4607 15.2398 11.9709 14.6105 11.9709C13.9811 11.9709 13.4709 11.4607 13.4709 10.8314C13.4709 10.202 13.9811 9.69186 14.6105 9.69186C15.2398 9.69186 15.75 10.202 15.75 10.8314Z" fill="black"/>
<path d="M15.75 15.3895C15.75 16.0189 15.2398 16.5291 14.6105 16.5291C13.9811 16.5291 13.4709 16.0189 13.4709 15.3895C13.4709 14.7602 13.9811 14.25 14.6105 14.25C15.2398 14.25 15.75 14.7602 15.75 15.3895Z" fill="black"/>
<path d="M15.75 19.9477C15.75 20.577 15.2398 21.0872 14.6105 21.0872C13.9811 21.0872 13.4709 20.577 13.4709 19.9477C13.4709 19.3183 13.9811 18.8081 14.6105 18.8081C15.2398 18.8081 15.75 19.3183 15.75 19.9477Z" fill="black"/>
<path d="M21.4477 10.8314C21.4477 11.4607 20.9375 11.9709 20.3081 11.9709C19.6788 11.9709 19.1686 11.4607 19.1686 10.8314C19.1686 10.202 19.6788 9.69186 20.3081 9.69186C20.9375 9.69186 21.4477 10.202 21.4477 10.8314Z" fill="black"/>
<path d="M21.4477 15.3895C21.4477 16.0189 20.9375 16.5291 20.3081 16.5291C19.6788 16.5291 19.1686 16.0189 19.1686 15.3895C19.1686 14.7602 19.6788 14.25 20.3081 14.25C20.9375 14.25 21.4477 14.7602 21.4477 15.3895Z" fill="black"/>
<path d="M10.0523 19.9477C10.0523 20.577 9.54214 21.0872 8.91279 21.0872C8.28344 21.0872 7.77326 20.577 7.77326 19.9477C7.77326 19.3183 8.28344 18.8081 8.91279 18.8081C9.54214 18.8081 10.0523 19.3183 10.0523 19.9477Z" fill="black"/>
</svg>
