<svg width="29" height="28" viewBox="0 0 29 28" fill="none" xmlns="http://www.w3.org/2000/svg">
<path fill-rule="evenodd" clip-rule="evenodd" d="M14.75 5C12.4145 5 10.5213 6.89326 10.5213 9.22872C10.5213 11.5642 12.4145 13.4574 14.75 13.4574C17.0855 13.4574 18.9787 11.5642 18.9787 9.22872C18.9787 6.89326 17.0855 5 14.75 5ZM12.2128 9.22872C12.2128 7.82745 13.3487 6.69149 14.75 6.69149C16.1513 6.69149 17.2872 7.82745 17.2872 9.22872C17.2872 10.63 16.1513 11.766 14.75 11.766C13.3487 11.766 12.2128 10.63 12.2128 9.22872Z" fill="black"/>
<path fill-rule="evenodd" clip-rule="evenodd" d="M11.367 15.1489C9.03156 15.1489 7.1383 17.0422 7.1383 19.3777C7.1383 21.7131 9.03156 23.6064 11.367 23.6064H18.133C20.4684 23.6064 22.3617 21.7131 22.3617 19.3777C22.3617 17.0422 20.4684 15.1489 18.133 15.1489H11.367ZM8.82979 19.3777C8.82979 17.9764 9.96575 16.8404 11.367 16.8404H18.133C19.5343 16.8404 20.6702 17.9764 20.6702 19.3777C20.6702 20.7789 19.5343 21.9149 18.133 21.9149H11.367C9.96575 21.9149 8.82979 20.7789 8.82979 19.3777Z" fill="black"/>
<path d="M9.95986 12.2042C9.782 11.9185 9.44827 11.766 9.1117 11.766C7.71043 11.766 6.57447 10.63 6.57447 9.22872C6.57447 7.82745 7.71043 6.69149 9.1117 6.69149C9.44827 6.69149 9.782 6.53895 9.95986 6.25322C9.96773 6.24058 9.97564 6.22798 9.9836 6.21541C10.2797 5.74799 10.1297 5.08615 9.57968 5.0256C9.42602 5.00868 9.26987 5 9.1117 5C6.77624 5 4.88298 6.89326 4.88298 9.22872C4.88298 11.5642 6.77624 13.4574 9.1117 13.4574C9.26987 13.4574 9.42602 13.4488 9.57968 13.4318C10.1297 13.3713 10.2797 12.7095 9.98361 12.242C9.97564 12.2295 9.96773 12.2169 9.95986 12.2042Z" fill="black"/>
<path d="M6.52743 21.1446C6.39942 20.931 6.17347 20.7872 5.92447 20.7872H5.72872C4.32745 20.7872 3.19149 19.6513 3.19149 18.25C3.19149 16.8487 4.32745 15.7128 5.72872 15.7128H5.92447C6.17347 15.7128 6.39942 15.569 6.52743 15.3554C6.83991 14.8341 6.50081 14.0213 5.89301 14.0213H5.72872C3.39326 14.0213 1.5 15.9145 1.5 18.25C1.5 20.5855 3.39326 22.4787 5.72872 22.4787H5.89301C6.50081 22.4787 6.83991 21.6659 6.52743 21.1446Z" fill="black"/>
<path d="M19.5164 12.242C19.2203 12.7095 19.3703 13.3713 19.9203 13.4318C20.074 13.4488 20.2301 13.4574 20.3883 13.4574C22.7238 13.4574 24.617 11.5642 24.617 9.22872C24.617 6.89326 22.7238 5 20.3883 5C20.2301 5 20.074 5.00868 19.9203 5.0256C19.3703 5.08615 19.2203 5.74798 19.5164 6.21541C19.5244 6.22798 19.5323 6.24058 19.5401 6.25322C19.718 6.53894 20.0517 6.69149 20.3883 6.69149C21.7896 6.69149 22.9255 7.82745 22.9255 9.22872C22.9255 10.63 21.7896 11.766 20.3883 11.766C20.0517 11.766 19.718 11.9185 19.5401 12.2042C19.5323 12.2169 19.5244 12.2295 19.5164 12.242Z" fill="black"/>
<path d="M22.9726 21.1446C22.6601 21.6659 22.9992 22.4787 23.607 22.4787H23.7713C26.1067 22.4787 28 20.5855 28 18.25C28 15.9145 26.1067 14.0213 23.7713 14.0213H23.607C22.9992 14.0213 22.6601 14.8341 22.9726 15.3554C23.1006 15.569 23.3265 15.7128 23.5755 15.7128H23.7713C25.1726 15.7128 26.3085 16.8487 26.3085 18.25C26.3085 19.6513 25.1726 20.7872 23.7713 20.7872H23.5755C23.3265 20.7872 23.1006 20.931 22.9726 21.1446Z" fill="black"/>
</svg>
