<svg width="29" height="28" viewBox="0 0 29 28" fill="none" xmlns="http://www.w3.org/2000/svg">
<path fill-rule="evenodd" clip-rule="evenodd" d="M14.7868 3C11.9818 3 9.70781 5.27396 9.70781 8.07902C9.70781 10.8841 11.9818 13.158 14.7868 13.158C17.5919 13.158 19.8659 10.8841 19.8659 8.07902C19.8659 5.27396 17.5919 3 14.7868 3ZM11.3117 8.07902C11.3117 6.15977 12.8676 4.6039 14.7868 4.6039C16.7061 4.6039 18.262 6.15977 18.262 8.07902C18.262 9.99828 16.7061 11.5541 14.7868 11.5541C12.8676 11.5541 11.3117 9.99828 11.3117 8.07902Z" fill="black"/>
<path fill-rule="evenodd" clip-rule="evenodd" d="M11.579 14.762C8.77396 14.762 6.5 17.0359 6.5 19.841C6.5 22.646 8.77396 24.92 11.579 24.92H17.9946C20.7997 24.92 23.0737 22.646 23.0737 19.841C23.0737 17.0359 20.7997 14.762 17.9946 14.762H11.579ZM8.1039 19.841C8.1039 17.9217 9.65977 16.3659 11.579 16.3659H17.9946C19.9139 16.3659 21.4698 17.9217 21.4698 19.841C21.4698 21.7602 19.9139 23.3161 17.9946 23.3161H11.579C9.65977 23.3161 8.1039 21.7602 8.1039 19.841Z" fill="black"/>
</svg>
