<svg width="20" height="20" viewBox="0 0 20 20" fill="none" xmlns="http://www.w3.org/2000/svg">
<path fill-rule="evenodd" clip-rule="evenodd" d="M5.64297 3.36806C5.64297 2.08323 6.68453 1.04167 7.96936 1.04167H12.2744C13.425 1.04167 14.3577 1.97441 14.3577 3.125C14.3577 3.58524 14.7308 3.95833 15.191 3.95833H15.6822C17.0028 3.95833 18.1644 4.98332 18.1106 6.38801C18.0416 8.18889 17.6919 11.0776 16.2891 13.634C15.9088 14.327 15.401 15.0077 14.852 15.6419L14.8107 15.6897C14.021 16.6022 13.3625 17.363 12.6546 17.8816C11.8932 18.4394 11.0806 18.7173 10.0003 18.7173C8.92009 18.7173 8.10743 18.4394 7.34603 17.8816C6.63814 17.363 5.97967 16.6022 5.18995 15.6897L5.14862 15.6419C4.59965 15.0077 4.09182 14.327 3.71158 13.634C2.35395 11.1598 1.98174 8.54791 1.89714 6.87207C1.82588 5.4606 2.99581 4.44444 4.30919 4.44444H4.56658C5.16105 4.44444 5.64297 3.96253 5.64297 3.36806ZM12.9869 8.72548C13.2035 8.4567 13.1612 8.06324 12.8924 7.84666C12.6236 7.63009 12.2302 7.67241 12.0136 7.94119L10.329 10.0318C9.98312 10.4611 9.76487 10.7296 9.58323 10.8992C9.49787 10.9789 9.44335 11.0144 9.41202 11.0301C9.38869 11.0417 9.38035 11.0417 9.37588 11.0417H9.37467C9.37019 11.0417 9.36186 11.0417 9.33853 11.0301C9.3072 11.0144 9.25268 10.9789 9.16732 10.8992C8.98568 10.7296 8.76743 10.4611 8.42153 10.0318L7.98694 9.4925C7.77037 9.22372 7.37691 9.1814 7.10813 9.39797C6.83935 9.61455 6.79703 10.008 7.0136 10.2768L7.47533 10.8498C7.78575 11.2351 8.05963 11.5751 8.31415 11.8128C8.58741 12.068 8.92716 12.2917 9.37527 12.2917C9.82339 12.2917 10.1631 12.068 10.4364 11.8128C10.6909 11.5751 10.9648 11.2352 11.2752 10.8498L12.9869 8.72548Z" fill="white"/>
</svg>
