<svg width="20" height="20" viewBox="0 0 20 20" fill="none" xmlns="http://www.w3.org/2000/svg">
<g clip-path="url(#clip0_3_3178)">
<path fill-rule="evenodd" clip-rule="evenodd" d="M7.02935 2.29717C7.88217 -0.691098 12.1171 -0.691098 12.9699 2.29717C13.2423 3.25147 14.2227 3.81752 15.1853 3.57623C18.1997 2.82065 20.3171 6.48824 18.1556 8.72093C17.4654 9.43394 17.4654 10.566 18.1556 11.279C20.3171 13.5117 18.1997 17.1793 15.1853 16.4237C14.2227 16.1825 13.2423 16.7485 12.9699 17.7028C12.1171 20.6911 7.88217 20.6911 7.02935 17.7028C6.75701 16.7485 5.77658 16.1825 4.81396 16.4237C1.79964 17.1793 -0.317847 13.5117 1.84367 11.279C2.53394 10.566 2.53394 9.43394 1.84367 8.72093C-0.317846 6.48824 1.79964 2.82065 4.81396 3.57623C5.77658 3.81752 6.75701 3.25147 7.02935 2.29717ZM12.6557 7.344C12.8997 7.58808 12.8997 7.98381 12.6557 8.22789L7.94162 12.9419C7.69754 13.186 7.30181 13.186 7.05773 12.9419C6.81365 12.6979 6.81365 12.3021 7.05773 12.058L11.7718 7.344C12.0159 7.09993 12.4116 7.09993 12.6557 7.344ZM7.49967 8.33335C7.03944 8.33335 6.66634 7.96026 6.66634 7.50002C6.66634 7.03978 7.03944 6.66669 7.49967 6.66669C7.95991 6.66669 8.33301 7.03978 8.33301 7.50002C8.33301 7.96026 7.95991 8.33335 7.49967 8.33335ZM12.4997 13.3334C12.0394 13.3334 11.6663 12.9603 11.6663 12.5C11.6663 12.0398 12.0394 11.6667 12.4997 11.6667C12.9599 11.6667 13.333 12.0398 13.333 12.5C13.333 12.9603 12.9599 13.3334 12.4997 13.3334Z" fill="white"/>
</g>
<defs>
<clipPath id="clip0_3_3178">
<rect width="20" height="20" fill="white"/>
</clipPath>
</defs>
</svg>
