<svg width="19" height="19" viewBox="0 0 19 19" fill="none" xmlns="http://www.w3.org/2000/svg">
<path fill-rule="evenodd" clip-rule="evenodd" d="M8.1665 0.208313C3.67919 0.208313 0.0415039 3.846 0.0415039 8.33331C0.0415039 12.8206 3.67919 16.4583 8.1665 16.4583C12.6538 16.4583 16.2915 12.8206 16.2915 8.33331C16.2915 3.846 12.6538 0.208313 8.1665 0.208313ZM1.2915 8.33331C1.2915 4.53636 4.36955 1.45831 8.1665 1.45831C11.9635 1.45831 15.0415 4.53636 15.0415 8.33331C15.0415 12.1303 11.9635 15.2083 8.1665 15.2083C4.36955 15.2083 1.2915 12.1303 1.2915 8.33331Z" fill="black"/>
<path d="M15.2752 14.5581C15.0311 14.314 14.6354 14.314 14.3913 14.5581C14.1472 14.8022 14.1472 15.1979 14.3913 15.442L17.7245 18.7753C17.9686 19.0194 18.3643 19.0194 18.6084 18.7753C18.8525 18.5312 18.8525 18.1355 18.6084 17.8914L15.2752 14.5581Z" fill="black"/>
</svg>
