<svg width="20" height="20" viewBox="0 0 20 20" fill="none" xmlns="http://www.w3.org/2000/svg">
<g clip-path="url(#clip0_3_3545)">
<path d="M11.7726 8.17597L6.85974 12.22C6.80327 12.2665 6.76004 12.3271 6.7344 12.3956C6.70876 12.4641 6.70161 12.5382 6.71367 12.6103L7.73861 18.7139C7.8263 19.2791 8.56328 19.4406 8.87806 18.9625L18.1184 4.96733C18.1822 4.87049 18.2178 4.75781 18.2213 4.64189C18.2247 4.52597 18.1958 4.41139 18.1378 4.31096C18.0798 4.21052 17.995 4.1282 17.8929 4.07321C17.7908 4.01821 17.6755 3.99271 17.5597 3.99954L0.819311 5.00435C0.248278 5.03863 0.0196353 5.75761 0.464864 6.11543L5.23898 10.0544C5.29543 10.101 5.36315 10.1318 5.43531 10.1439C5.50747 10.1559 5.58153 10.1487 5.65005 10.1231L11.6087 7.89048C11.6457 7.87632 11.6866 7.87582 11.724 7.88908C11.7614 7.90234 11.7928 7.92848 11.8126 7.96282C11.8324 7.99716 11.8394 8.03744 11.8322 8.07643C11.8249 8.11542 11.8041 8.15056 11.7733 8.17555L11.7726 8.17597Z" fill="black"/>
</g>
<defs>
<clipPath id="clip0_3_3545">
<rect width="20" height="20" fill="white"/>
</clipPath>
</defs>
</svg>
