<svg width="18" height="18" viewBox="0 0 18 18" fill="none" xmlns="http://www.w3.org/2000/svg">
<g clip-path="url(#clip0_3_3537)">
<path d="M5.74936 10.2411C5.60636 9.96528 5.26686 9.85764 4.99107 10.0006C4.71528 10.1436 4.60764 10.4831 4.75064 10.7589C5.04881 11.334 5.60394 11.9641 6.32122 12.4518C7.04361 12.9429 7.96433 13.3125 9 13.3125C10.0357 13.3125 10.9564 12.9429 11.6788 12.4518C12.3961 11.9641 12.9512 11.334 13.2494 10.7589C13.3924 10.4831 13.2847 10.1436 13.0089 10.0006C12.7331 9.85764 12.3936 9.96528 12.2506 10.2411C12.0488 10.6303 11.6289 11.1252 11.0462 11.5214C10.4686 11.9142 9.76433 12.1875 9 12.1875C8.23567 12.1875 7.53139 11.9142 6.95378 11.5214C6.37106 11.1252 5.95119 10.6303 5.74936 10.2411Z" fill="black"/>
<path fill-rule="evenodd" clip-rule="evenodd" d="M9 0.9375C4.5472 0.9375 0.9375 4.5472 0.9375 9C0.9375 13.4528 4.5472 17.0625 9 17.0625C13.4528 17.0625 17.0625 13.4528 17.0625 9C17.0625 4.5472 13.4528 0.9375 9 0.9375ZM2.0625 9C2.0625 5.16852 5.16852 2.0625 9 2.0625C12.8315 2.0625 15.9375 5.16852 15.9375 9C15.9375 12.8315 12.8315 15.9375 9 15.9375C5.16852 15.9375 2.0625 12.8315 2.0625 9Z" fill="black"/>
<path d="M7.5 6C7.5 6.41421 7.16421 6.75 6.75 6.75C6.33579 6.75 6 6.41421 6 6C6 5.58579 6.33579 5.25 6.75 5.25C7.16421 5.25 7.5 5.58579 7.5 6Z" fill="black"/>
<path d="M12 6C12 6.41421 11.6642 6.75 11.25 6.75C10.8358 6.75 10.5 6.41421 10.5 6C10.5 5.58579 10.8358 5.25 11.25 5.25C11.6642 5.25 12 5.58579 12 6Z" fill="black"/>
</g>
<defs>
<clipPath id="clip0_3_3537">
<rect width="18" height="18" fill="white"/>
</clipPath>
</defs>
</svg>
