<svg width="16" height="16" viewBox="0 0 16 16" fill="none" xmlns="http://www.w3.org/2000/svg">
<g clip-path="url(#clip0_3_5412)">
<path d="M7.27999 1.91199C7.35335 1.78609 7.45845 1.68164 7.58478 1.60904C7.71112 1.53644 7.85428 1.49823 7.99999 1.49823C8.1457 1.49823 8.28886 1.53644 8.4152 1.60904C8.54153 1.68164 8.64663 1.78609 8.71999 1.91199L10.5833 5.11065L14.202 5.89465C14.3443 5.92559 14.4761 5.99329 14.5841 6.09101C14.6921 6.18873 14.7726 6.31306 14.8176 6.4516C14.8626 6.59014 14.8705 6.73806 14.8405 6.8806C14.8105 7.02314 14.7437 7.15533 14.6467 7.26399L12.18 10.0247L12.5533 13.708C12.5681 13.853 12.5445 13.9994 12.4849 14.1325C12.4254 14.2655 12.332 14.3807 12.2141 14.4664C12.0961 14.552 11.9578 14.6053 11.8128 14.6208C11.6679 14.6363 11.5214 14.6135 11.388 14.5547L7.99999 13.0613L4.61199 14.5547C4.4786 14.6135 4.33212 14.6363 4.18716 14.6208C4.0422 14.6053 3.90385 14.552 3.7859 14.4664C3.66796 14.3807 3.57457 14.2655 3.51504 14.1325C3.45551 13.9994 3.43193 13.853 3.44666 13.708L3.81999 10.0247L1.35332 7.26465C1.25614 7.156 1.18916 7.02376 1.15907 6.88113C1.12897 6.7385 1.13682 6.59047 1.18182 6.45182C1.22682 6.31317 1.30741 6.18876 1.41553 6.09099C1.52365 5.99322 1.65553 5.92552 1.79799 5.89465L5.41666 5.11065L7.27999 1.91199Z" fill="#FF9900"/>
</g>
<defs>
<clipPath id="clip0_3_5412">
<rect width="16" height="16" fill="white"/>
</clipPath>
</defs>
</svg>
