<svg width="20" height="20" viewBox="0 0 20 20" fill="none" xmlns="http://www.w3.org/2000/svg">
<path fill-rule="evenodd" clip-rule="evenodd" d="M4.21756 2.46243C4.30518 2.39877 4.39579 2.34021 4.48995 2.28632C4.52019 2.35369 4.56297 2.41679 4.61829 2.47211C5.69375 3.54753 6.53791 4.39035 7.28205 4.98593C8.0354 5.58888 8.7409 5.98465 9.55376 6.1134C10.0504 6.19206 10.5563 6.19206 11.0529 6.1134C11.8431 5.98825 12.5316 5.61085 13.2614 5.03611C13.9819 4.46871 14.7907 3.66898 15.8089 2.65156C15.8416 2.61892 15.8699 2.58356 15.8938 2.54621C16.2017 2.78605 16.4746 3.0681 16.7042 3.38423C17.5 4.4795 17.5 6.04189 17.5 9.16667V10.8333C17.5 13.9581 17.5 15.5205 16.7042 16.6158C16.4472 16.9695 16.1362 17.2806 15.7824 17.5376C14.6872 18.3333 13.1248 18.3333 10 18.3333C6.87522 18.3333 5.31283 18.3333 4.21756 17.5376C3.86383 17.2806 3.55276 16.9695 3.29576 16.6158C2.5 15.5205 2.5 13.9581 2.5 10.8333V9.16667C2.5 6.04189 2.5 4.4795 3.29576 3.38423C3.55276 3.0305 3.86383 2.71943 4.21756 2.46243ZM6.66667 7.70833C6.32149 7.70833 6.04167 7.98816 6.04167 8.33333C6.04167 8.67851 6.32149 8.95833 6.66667 8.95833H13.3333C13.6785 8.95833 13.9583 8.67851 13.9583 8.33333C13.9583 7.98816 13.6785 7.70833 13.3333 7.70833H6.66667ZM6.66667 11.0417C6.32149 11.0417 6.04167 11.3215 6.04167 11.6667C6.04167 12.0118 6.32149 12.2917 6.66667 12.2917H9.16667C9.51184 12.2917 9.79167 12.0118 9.79167 11.6667C9.79167 11.3215 9.51184 11.0417 9.16667 11.0417H6.66667ZM6.66667 14.375C6.32149 14.375 6.04167 14.6548 6.04167 15C6.04167 15.3452 6.32149 15.625 6.66667 15.625H13.3333C13.6785 15.625 13.9583 15.3452 13.9583 15C13.9583 14.6548 13.6785 14.375 13.3333 14.375H6.66667Z" fill="white"/>
<path d="M10 1.66667C12.2499 1.66667 13.6899 1.66667 14.7286 1.96373C13.795 2.89491 13.0967 3.57479 12.4881 4.05408C11.8468 4.55912 11.3552 4.79994 10.8574 4.87879C10.4903 4.93693 10.1164 4.93693 9.74931 4.87879C9.23719 4.79768 8.73182 4.54521 8.06314 4.01002C7.44053 3.5117 6.72418 2.80869 5.76383 1.84973C6.75728 1.66667 8.08535 1.66667 10 1.66667Z" fill="white"/>
</svg>
