<svg width="14" height="10" viewBox="0 0 14 10" fill="none" xmlns="http://www.w3.org/2000/svg">
<path d="M13.4321 1.6101C13.631 1.37145 13.5988 1.01675 13.3601 0.817874C13.1215 0.618995 12.7668 0.651239 12.5679 0.889895L8.52488 5.7415C7.71276 6.71606 7.14145 7.3995 6.64593 7.84696C6.16196 8.28399 5.82796 8.42289 5.50001 8.42289C5.17207 8.42289 4.83807 8.28399 4.3541 7.84696C3.85857 7.3995 3.28727 6.71605 2.47514 5.7415L1.43214 4.4899C1.23326 4.25124 0.878566 4.21899 0.63991 4.41787C0.401255 4.61675 0.36901 4.97145 0.56789 5.2101L1.63984 6.49644C2.41629 7.42821 3.03811 8.17441 3.60013 8.68192C4.18067 9.20615 4.77412 9.54789 5.50001 9.54789C6.22591 9.54789 6.81936 9.20615 7.3999 8.68192C7.96191 8.17442 8.58372 7.42823 9.36016 6.49647L13.4321 1.6101Z" fill="white"/>
</svg>
