<svg width="20" height="20" viewBox="0 0 20 20" fill="none" xmlns="http://www.w3.org/2000/svg">
<path d="M10.6613 8.41519C10.6489 8.40529 10.6368 8.39573 10.625 8.38649V14.1667C10.625 14.5118 10.3452 14.7917 10 14.7917C9.65482 14.7917 9.375 14.5118 9.375 14.1667V8.38649C9.36315 8.39573 9.35107 8.40529 9.33874 8.41519C9.06989 8.6311 8.75028 8.95223 8.27545 9.43132L7.11058 10.6066C6.86759 10.8518 6.47187 10.8536 6.2267 10.6106C5.98154 10.3676 5.97977 9.97186 6.22276 9.7267L7.41304 8.52575C7.85586 8.07894 8.22519 7.70628 8.55604 7.44058C8.90306 7.16189 9.26776 6.94991 9.71209 6.89327C9.90327 6.86891 10.0967 6.86891 10.2879 6.89327C10.7322 6.94991 11.0969 7.16189 11.444 7.44058C11.7748 7.70628 12.1441 8.07892 12.5869 8.52573L13.7772 9.7267C14.0202 9.97186 14.0185 10.3676 13.7733 10.6106C13.5281 10.8536 13.1324 10.8518 12.8894 10.6066L11.7246 9.43132C11.2497 8.95224 10.9301 8.63111 10.6613 8.41519Z" fill="black"/>
<path fill-rule="evenodd" clip-rule="evenodd" d="M16.1498 1.95679C15.4779 1.4686 14.6909 1.25 13.7196 1.14477C12.7678 1.04165 11.5682 1.04166 10.0377 1.04167H9.99077C9.02407 1.04167 8.19293 1.04167 7.4786 1.06614C5.9174 1.11963 4.76991 1.28858 3.8502 1.95679C3.44341 2.25234 3.08567 2.61007 2.79013 3.01686C2.12191 3.93658 1.95296 5.08406 1.89947 6.64527C1.875 7.35961 1.875 8.19076 1.875 9.15748V10.871C1.87499 12.4015 1.87499 13.6012 1.97811 14.5529C2.08334 15.5242 2.30194 16.3112 2.79013 16.9831C3.08567 17.3899 3.44341 17.7477 3.8502 18.0432C4.52213 18.5314 5.30912 18.75 6.2804 18.8552C7.23216 18.9583 8.4318 18.9583 9.96221 18.9583H10.0377C11.5681 18.9583 12.7678 18.9583 13.7196 18.8552C14.6909 18.75 15.4779 18.5314 16.1498 18.0432C16.5566 17.7477 16.9143 17.3899 17.2099 16.9831C17.6981 16.3112 17.9167 15.5242 18.0219 14.5529C18.125 13.6012 18.125 12.4015 18.125 10.8711V9.12894C18.125 7.59853 18.125 6.39883 18.0219 5.44706C17.9167 4.47578 17.6981 3.6888 17.2099 3.01686C16.9143 2.61007 16.5566 2.25234 16.1498 1.95679ZM10 2.29167C11.5763 2.29167 12.7083 2.29252 13.585 2.3875C14.4499 2.48121 14.9917 2.66049 15.4151 2.96806C15.7157 3.18651 15.9802 3.45093 16.1986 3.75159C16.5062 4.17493 16.6855 4.71678 16.7792 5.5817C16.8741 6.45833 16.875 7.59036 16.875 9.16667V10.8333C16.875 12.4096 16.8741 13.5417 16.7792 14.4183C16.6855 15.2832 16.5062 15.8251 16.1986 16.2484C15.9802 16.5491 15.7157 16.8135 15.4151 17.0319C14.9917 17.3395 14.4499 17.5188 13.585 17.6125C12.7083 17.7075 11.5763 17.7083 10 17.7083C8.42369 17.7083 7.29166 17.7075 6.41504 17.6125C5.55011 17.5188 5.00826 17.3395 4.58493 17.0319C4.28426 16.8135 4.01985 16.5491 3.8014 16.2484C3.49383 15.8251 3.31454 15.2832 3.22083 14.4183C3.12586 13.5417 3.125 12.4096 3.125 10.8333V9.16667C3.125 8.45971 3.12504 7.84018 3.13401 7.29015C3.52956 7.28651 3.82074 7.2742 4.08292 7.23267C6.13323 6.90793 7.74127 5.2999 8.06601 3.24958C8.10753 2.98741 8.11984 2.69622 8.12348 2.30068C8.67351 2.29171 9.29304 2.29167 10 2.29167ZM3.88737 5.99806C3.71651 6.02512 3.51865 6.03545 3.1812 6.03935C3.25934 4.90573 3.43846 4.25114 3.8014 3.75159C4.01985 3.45093 4.28426 3.18651 4.58493 2.96806C5.08447 2.60512 5.73906 2.42601 6.87268 2.34787C6.86878 2.68532 6.85846 2.88318 6.8314 3.05404C6.59137 4.56949 5.40282 5.75804 3.88737 5.99806Z" fill="black"/>
</svg>
