<svg width="18" height="18" viewBox="0 0 18 18" fill="none" xmlns="http://www.w3.org/2000/svg">
<path d="M7.5046 1.59377C7.84136 1.2557 8.21514 0.975461 8.69278 0.89936C8.79454 0.883147 8.89719 0.875 9.00001 0.875C9.10283 0.875 9.20548 0.883147 9.30724 0.899359C9.78488 0.975461 10.1587 1.25571 10.4954 1.59377C10.8236 1.9232 11.1902 2.38563 11.6345 2.94603L12.8231 4.44503C13.0375 4.7155 12.9921 5.10861 12.7217 5.32307C12.4512 5.53753 12.0581 5.49212 11.8436 5.22164L10.6787 3.7525C10.2136 3.16581 9.89389 2.76414 9.62501 2.49127V13.1667C9.62501 13.5118 9.34519 13.7917 9.00001 13.7917C8.65483 13.7917 8.37501 13.5118 8.37501 13.1667V2.49127C8.10613 2.76414 7.78646 3.16581 7.32128 3.7525L6.15641 5.22164C5.94195 5.49212 5.54884 5.53753 5.27837 5.32307C5.00789 5.10861 4.96248 4.7155 5.17694 4.44502L6.36547 2.94604C6.80978 2.38565 7.17644 1.92319 7.5046 1.59377Z" fill="white"/>
<path d="M16.1667 7.7913C15.9594 7.51531 15.5676 7.45963 15.2916 7.66694C15.0156 7.87424 14.9599 8.26603 15.1673 8.54203C15.6118 9.13389 15.875 9.86864 15.875 10.6667V11.5C15.875 12.2981 15.8731 12.6243 15.8314 12.8874C15.5914 14.4028 14.4028 15.5914 12.8874 15.8314C12.6243 15.8731 12.2981 15.875 11.5 15.875H6.50001C5.70195 15.875 5.37569 15.8731 5.11263 15.8314C3.59718 15.5914 2.40864 14.4028 2.16861 12.8874C2.12695 12.6243 2.12501 12.2981 2.12501 11.5V10.6667C2.12501 9.86864 2.3882 9.13389 2.83276 8.54203C3.04007 8.26603 2.98439 7.87424 2.7084 7.66694C2.4324 7.45963 2.04061 7.51531 1.83331 7.7913C1.23173 8.5922 0.875007 9.58868 0.875007 10.6667L0.875003 11.5673C0.874947 12.2774 0.874913 12.7098 0.934 13.0829C1.25874 15.1332 2.86677 16.7413 4.91709 17.066C5.29016 17.1251 5.72265 17.1251 6.43267 17.125H11.5673C12.2774 17.1251 12.7099 17.1251 13.0829 17.066C15.1332 16.7413 16.7413 15.1332 17.066 13.0829C17.1251 12.7098 17.1251 12.2774 17.125 11.5673L17.125 10.6667C17.125 9.58868 16.7683 8.5922 16.1667 7.7913Z" fill="white"/>
</svg>
