<svg width="26" height="26" viewBox="0 0 26 26" fill="none" xmlns="http://www.w3.org/2000/svg">
<path d="M23.5625 21.125C23.5625 21.3405 23.4769 21.5472 23.3245 21.6995C23.1722 21.8519 22.9655 21.9375 22.75 21.9375H3.25C3.03451 21.9375 2.82785 21.8519 2.67548 21.6995C2.5231 21.5472 2.4375 21.3405 2.4375 21.125C2.4375 20.9095 2.5231 20.7028 2.67548 20.5505C2.82785 20.3981 3.03451 20.3125 3.25 20.3125H22.75C22.9655 20.3125 23.1722 20.3981 23.3245 20.5505C23.4769 20.7028 23.5625 20.9095 23.5625 21.125ZM23.5625 5.6875V17.0625C23.5625 17.4935 23.3913 17.9068 23.0865 18.2115C22.7818 18.5163 22.3685 18.6875 21.9375 18.6875H4.0625C3.63152 18.6875 3.2182 18.5163 2.91345 18.2115C2.6087 17.9068 2.4375 17.4935 2.4375 17.0625V5.6875C2.4375 5.25652 2.6087 4.8432 2.91345 4.53845C3.2182 4.2337 3.63152 4.0625 4.0625 4.0625H21.9375C22.3685 4.0625 22.7818 4.2337 23.0865 4.53845C23.3913 4.8432 23.5625 5.25652 23.5625 5.6875ZM16.6562 11.375C16.6562 11.2383 16.6217 11.1037 16.5558 10.9839C16.4899 10.8641 16.3949 10.7628 16.2795 10.6895L11.8107 7.8457C11.6879 7.76767 11.5463 7.72405 11.4009 7.71941C11.2554 7.71478 11.1114 7.74929 10.9839 7.81934C10.8563 7.8894 10.7499 7.99242 10.6758 8.11766C10.6017 8.24289 10.5625 8.38573 10.5625 8.53125V14.2188C10.5625 14.3643 10.6017 14.5071 10.6758 14.6323C10.7499 14.7576 10.8563 14.8606 10.9839 14.9307C11.1114 15.0007 11.2554 15.0352 11.4009 15.0306C11.5463 15.0259 11.6879 14.9823 11.8107 14.9043L16.2795 12.0605C16.3949 11.9872 16.4899 11.8859 16.5558 11.7661C16.6217 11.6463 16.6562 11.5117 16.6562 11.375Z" fill="white"/>
</svg>
