<svg width="16" height="16" viewBox="0 0 16 16" fill="none" xmlns="http://www.w3.org/2000/svg">
<path fill-rule="evenodd" clip-rule="evenodd" d="M5.07172 14.6679C8.00407 16.4801 11.6171 15.007 13.3208 13.3033C16.2497 10.3744 16.2497 5.62563 13.3208 2.6967C10.3919 -0.232233 5.64314 -0.232233 2.71421 2.6967C0.937917 4.47299 -0.469333 8.02017 1.34902 10.9461C1.44972 11.1082 1.50008 11.1892 1.52471 11.251C1.57165 11.3689 1.58544 11.4594 1.57573 11.5859C1.57064 11.6523 1.55121 11.7273 1.51234 11.8772C1.26784 12.8206 1.14558 13.2922 1.21474 13.632C1.33477 14.2218 1.79569 14.6827 2.38547 14.8028C2.72528 14.8719 3.19695 14.7497 4.1403 14.5052C4.29019 14.4663 4.36518 14.4469 4.43133 14.4418C4.55783 14.432 4.64728 14.4455 4.76524 14.4922C4.82694 14.5167 4.90853 14.5671 5.07172 14.6679ZM5.78955 7.89334C5.78955 8.30755 5.45376 8.64334 5.03955 8.64334C4.62534 8.64334 4.28955 8.30755 4.28955 7.89334C4.28955 7.47913 4.62534 7.14334 5.03955 7.14334C5.45376 7.14334 5.78955 7.47913 5.78955 7.89334ZM8.78955 7.89334C8.78955 8.30755 8.45376 8.64334 8.03955 8.64334C7.62534 8.64334 7.28955 8.30755 7.28955 7.89334C7.28955 7.47913 7.62534 7.14334 8.03955 7.14334C8.45376 7.14334 8.78955 7.47913 8.78955 7.89334ZM11.0396 8.64334C11.4538 8.64334 11.7896 8.30755 11.7896 7.89334C11.7896 7.47913 11.4538 7.14334 11.0396 7.14334C10.6253 7.14334 10.2896 7.47913 10.2896 7.89334C10.2896 8.30755 10.6253 8.64334 11.0396 8.64334Z" fill="white"/>
</svg>
