<svg width="16" height="16" viewBox="0 0 16 16" fill="none" xmlns="http://www.w3.org/2000/svg">
<path d="M5.08387 1.23129C4.29481 0.506238 3.08194 0.506238 2.29288 1.23129C2.26056 1.26098 2.22606 1.29549 2.18126 1.34029L1.50815 2.01341C0.830811 2.69075 0.546471 3.66719 0.754268 4.60227C1.93325 9.90767 6.07665 14.0511 11.382 15.23C12.3171 15.4378 13.2936 15.1535 13.9709 14.4762L14.644 13.8031C14.6888 13.7583 14.7233 13.7238 14.753 13.6914C15.4781 12.9024 15.4781 11.6895 14.753 10.9004C14.7233 10.8681 14.6888 10.8336 14.644 10.7888L13.542 9.68682C12.7769 8.92175 11.6215 8.70294 10.6297 9.13528C10.0619 9.38279 9.4004 9.25752 8.9624 8.81952L7.1648 7.02192C6.72679 6.58391 6.60152 5.92245 6.84904 5.35462C7.28138 4.36278 7.06257 3.20738 6.29749 2.4423L5.1955 1.3403C5.15069 1.29549 5.11619 1.26098 5.08387 1.23129Z" fill="white"/>
</svg>
