<svg width="22" height="22" viewBox="0 0 22 22" fill="none" xmlns="http://www.w3.org/2000/svg">
<g clip-path="url(#clip0_3_6673)">
<path d="M12.9498 8.99357L7.54572 13.442C7.4836 13.4932 7.43604 13.5598 7.40784 13.6352C7.37963 13.7105 7.37177 13.792 7.38504 13.8714L8.51248 20.5853C8.60893 21.2071 9.4196 21.3847 9.76587 20.8588L19.9303 5.46406C20.0005 5.35754 20.0396 5.23359 20.0434 5.10608C20.0472 4.97857 20.0154 4.85253 19.9516 4.74205C19.8878 4.63158 19.7945 4.54103 19.6822 4.48053C19.5699 4.42003 19.443 4.39198 19.3157 4.3995L0.901242 5.50479C0.273106 5.54249 0.0215988 6.33337 0.51135 6.72698L5.76287 11.0599C5.82498 11.1111 5.89946 11.145 5.97884 11.1582C6.05822 11.1715 6.13968 11.1636 6.21505 11.1354L12.7696 8.67953C12.8103 8.66395 12.8553 8.6634 12.8964 8.67799C12.9375 8.69257 12.972 8.72133 12.9939 8.7591C13.0157 8.79687 13.0233 8.84118 13.0154 8.88407C13.0074 8.92696 12.9845 8.96562 12.9506 8.99311L12.9498 8.99357Z" fill="white"/>
</g>
<defs>
<clipPath id="clip0_3_6673">
<rect width="22" height="22" fill="white"/>
</clipPath>
</defs>
</svg>
